<?xml version="1.0" encoding="utf-8" standalone="no"?>
<!DOCTYPE svg PUBLIC "-//W3C//DTD SVG 1.1//EN"
  "http://www.w3.org/Graphics/SVG/1.1/DTD/svg11.dtd">
<!-- Created with matplotlib (http://matplotlib.org/) -->
<svg height="325.986375pt" version="1.1" viewBox="0 0 544.782525 325.986375" width="544.782525pt" xmlns="http://www.w3.org/2000/svg" xmlns:xlink="http://www.w3.org/1999/xlink">
 <defs>
  <style type="text/css">
*{stroke-linecap:butt;stroke-linejoin:round;}
  </style>
 </defs>
 <g id="figure_1">
  <g id="patch_1">
   <path d="M 0 325.986375 
L 544.782525 325.986375 
L 544.782525 0 
L 0 0 
z
" style="fill:#ffffff;"/>
  </g>
  <g id="axes_1">
   <g id="patch_2">
    <path d="M 53.328125 288.430125 
L 410.448125 288.430125 
L 410.448125 22.318125 
L 53.328125 22.318125 
z
" style="fill:#ffffff;"/>
   </g>
   <g id="matplotlib.axis_1">
    <g id="xtick_1">
     <g id="line2d_1">
      <defs>
       <path d="M 0 0 
L 0 3.5 
" id="me66ed7ecc0" style="stroke:#000000;stroke-width:0.8;"/>
      </defs>
      <g>
       <use style="stroke:#000000;stroke-width:0.8;" x="69.532907" xlink:href="#me66ed7ecc0" y="288.430125"/>
      </g>
     </g>
     <g id="text_1">
      <!-- 0 -->
      <defs>
       <path d="M 31.78125 66.40625 
Q 24.171875 66.40625 20.328125 58.90625 
Q 16.5 51.421875 16.5 36.375 
Q 16.5 21.390625 20.328125 13.890625 
Q 24.171875 6.390625 31.78125 6.390625 
Q 39.453125 6.390625 43.28125 13.890625 
Q 47.125 21.390625 47.125 36.375 
Q 47.125 51.421875 43.28125 58.90625 
Q 39.453125 66.40625 31.78125 66.40625 
z
M 31.78125 74.21875 
Q 44.046875 74.21875 50.515625 64.515625 
Q 56.984375 54.828125 56.984375 36.375 
Q 56.984375 17.96875 50.515625 8.265625 
Q 44.046875 -1.421875 31.78125 -1.421875 
Q 19.53125 -1.421875 13.0625 8.265625 
Q 6.59375 17.96875 6.59375 36.375 
Q 6.59375 54.828125 13.0625 64.515625 
Q 19.53125 74.21875 31.78125 74.21875 
z
" id="DejaVuSans-30"/>
      </defs>
      <g transform="translate(66.351657 303.028562)scale(0.1 -0.1)">
       <use xlink:href="#DejaVuSans-30"/>
      </g>
     </g>
    </g>
    <g id="xtick_2">
     <g id="line2d_2">
      <g>
       <use style="stroke:#000000;stroke-width:0.8;" x="134.522501" xlink:href="#me66ed7ecc0" y="288.430125"/>
      </g>
     </g>
     <g id="text_2">
      <!-- 200000 -->
      <defs>
       <path d="M 19.1875 8.296875 
L 53.609375 8.296875 
L 53.609375 0 
L 7.328125 0 
L 7.328125 8.296875 
Q 12.9375 14.109375 22.625 23.890625 
Q 32.328125 33.6875 34.8125 36.53125 
Q 39.546875 41.84375 41.421875 45.53125 
Q 43.3125 49.21875 43.3125 52.78125 
Q 43.3125 58.59375 39.234375 62.25 
Q 35.15625 65.921875 28.609375 65.921875 
Q 23.96875 65.921875 18.8125 64.3125 
Q 13.671875 62.703125 7.8125 59.421875 
L 7.8125 69.390625 
Q 13.765625 71.78125 18.9375 73 
Q 24.125 74.21875 28.421875 74.21875 
Q 39.75 74.21875 46.484375 68.546875 
Q 53.21875 62.890625 53.21875 53.421875 
Q 53.21875 48.921875 51.53125 44.890625 
Q 49.859375 40.875 45.40625 35.40625 
Q 44.1875 33.984375 37.640625 27.21875 
Q 31.109375 20.453125 19.1875 8.296875 
z
" id="DejaVuSans-32"/>
      </defs>
      <g transform="translate(115.435001 303.028562)scale(0.1 -0.1)">
       <use xlink:href="#DejaVuSans-32"/>
       <use x="63.623047" xlink:href="#DejaVuSans-30"/>
       <use x="127.246094" xlink:href="#DejaVuSans-30"/>
       <use x="190.869141" xlink:href="#DejaVuSans-30"/>
       <use x="254.492188" xlink:href="#DejaVuSans-30"/>
       <use x="318.115234" xlink:href="#DejaVuSans-30"/>
      </g>
     </g>
    </g>
    <g id="xtick_3">
     <g id="line2d_3">
      <g>
       <use style="stroke:#000000;stroke-width:0.8;" x="199.512096" xlink:href="#me66ed7ecc0" y="288.430125"/>
      </g>
     </g>
     <g id="text_3">
      <!-- 400000 -->
      <defs>
       <path d="M 37.796875 64.3125 
L 12.890625 25.390625 
L 37.796875 25.390625 
z
M 35.203125 72.90625 
L 47.609375 72.90625 
L 47.609375 25.390625 
L 58.015625 25.390625 
L 58.015625 17.1875 
L 47.609375 17.1875 
L 47.609375 0 
L 37.796875 0 
L 37.796875 17.1875 
L 4.890625 17.1875 
L 4.890625 26.703125 
z
" id="DejaVuSans-34"/>
      </defs>
      <g transform="translate(180.424596 303.028562)scale(0.1 -0.1)">
       <use xlink:href="#DejaVuSans-34"/>
       <use x="63.623047" xlink:href="#DejaVuSans-30"/>
       <use x="127.246094" xlink:href="#DejaVuSans-30"/>
       <use x="190.869141" xlink:href="#DejaVuSans-30"/>
       <use x="254.492188" xlink:href="#DejaVuSans-30"/>
       <use x="318.115234" xlink:href="#DejaVuSans-30"/>
      </g>
     </g>
    </g>
    <g id="xtick_4">
     <g id="line2d_4">
      <g>
       <use style="stroke:#000000;stroke-width:0.8;" x="264.501691" xlink:href="#me66ed7ecc0" y="288.430125"/>
      </g>
     </g>
     <g id="text_4">
      <!-- 600000 -->
      <defs>
       <path d="M 33.015625 40.375 
Q 26.375 40.375 22.484375 35.828125 
Q 18.609375 31.296875 18.609375 23.390625 
Q 18.609375 15.53125 22.484375 10.953125 
Q 26.375 6.390625 33.015625 6.390625 
Q 39.65625 6.390625 43.53125 10.953125 
Q 47.40625 15.53125 47.40625 23.390625 
Q 47.40625 31.296875 43.53125 35.828125 
Q 39.65625 40.375 33.015625 40.375 
z
M 52.59375 71.296875 
L 52.59375 62.3125 
Q 48.875 64.0625 45.09375 64.984375 
Q 41.3125 65.921875 37.59375 65.921875 
Q 27.828125 65.921875 22.671875 59.328125 
Q 17.53125 52.734375 16.796875 39.40625 
Q 19.671875 43.65625 24.015625 45.921875 
Q 28.375 48.1875 33.59375 48.1875 
Q 44.578125 48.1875 50.953125 41.515625 
Q 57.328125 34.859375 57.328125 23.390625 
Q 57.328125 12.15625 50.6875 5.359375 
Q 44.046875 -1.421875 33.015625 -1.421875 
Q 20.359375 -1.421875 13.671875 8.265625 
Q 6.984375 17.96875 6.984375 36.375 
Q 6.984375 53.65625 15.1875 63.9375 
Q 23.390625 74.21875 37.203125 74.21875 
Q 40.921875 74.21875 44.703125 73.484375 
Q 48.484375 72.75 52.59375 71.296875 
z
" id="DejaVuSans-36"/>
      </defs>
      <g transform="translate(245.414191 303.028562)scale(0.1 -0.1)">
       <use xlink:href="#DejaVuSans-36"/>
       <use x="63.623047" xlink:href="#DejaVuSans-30"/>
       <use x="127.246094" xlink:href="#DejaVuSans-30"/>
       <use x="190.869141" xlink:href="#DejaVuSans-30"/>
       <use x="254.492188" xlink:href="#DejaVuSans-30"/>
       <use x="318.115234" xlink:href="#DejaVuSans-30"/>
      </g>
     </g>
    </g>
    <g id="xtick_5">
     <g id="line2d_5">
      <g>
       <use style="stroke:#000000;stroke-width:0.8;" x="329.491286" xlink:href="#me66ed7ecc0" y="288.430125"/>
      </g>
     </g>
     <g id="text_5">
      <!-- 800000 -->
      <defs>
       <path d="M 31.78125 34.625 
Q 24.75 34.625 20.71875 30.859375 
Q 16.703125 27.09375 16.703125 20.515625 
Q 16.703125 13.921875 20.71875 10.15625 
Q 24.75 6.390625 31.78125 6.390625 
Q 38.8125 6.390625 42.859375 10.171875 
Q 46.921875 13.96875 46.921875 20.515625 
Q 46.921875 27.09375 42.890625 30.859375 
Q 38.875 34.625 31.78125 34.625 
z
M 21.921875 38.8125 
Q 15.578125 40.375 12.03125 44.71875 
Q 8.5 49.078125 8.5 55.328125 
Q 8.5 64.0625 14.71875 69.140625 
Q 20.953125 74.21875 31.78125 74.21875 
Q 42.671875 74.21875 48.875 69.140625 
Q 55.078125 64.0625 55.078125 55.328125 
Q 55.078125 49.078125 51.53125 44.71875 
Q 48 40.375 41.703125 38.8125 
Q 48.828125 37.15625 52.796875 32.3125 
Q 56.78125 27.484375 56.78125 20.515625 
Q 56.78125 9.90625 50.3125 4.234375 
Q 43.84375 -1.421875 31.78125 -1.421875 
Q 19.734375 -1.421875 13.25 4.234375 
Q 6.78125 9.90625 6.78125 20.515625 
Q 6.78125 27.484375 10.78125 32.3125 
Q 14.796875 37.15625 21.921875 38.8125 
z
M 18.3125 54.390625 
Q 18.3125 48.734375 21.84375 45.5625 
Q 25.390625 42.390625 31.78125 42.390625 
Q 38.140625 42.390625 41.71875 45.5625 
Q 45.3125 48.734375 45.3125 54.390625 
Q 45.3125 60.0625 41.71875 63.234375 
Q 38.140625 66.40625 31.78125 66.40625 
Q 25.390625 66.40625 21.84375 63.234375 
Q 18.3125 60.0625 18.3125 54.390625 
z
" id="DejaVuSans-38"/>
      </defs>
      <g transform="translate(310.403786 303.028562)scale(0.1 -0.1)">
       <use xlink:href="#DejaVuSans-38"/>
       <use x="63.623047" xlink:href="#DejaVuSans-30"/>
       <use x="127.246094" xlink:href="#DejaVuSans-30"/>
       <use x="190.869141" xlink:href="#DejaVuSans-30"/>
       <use x="254.492188" xlink:href="#DejaVuSans-30"/>
       <use x="318.115234" xlink:href="#DejaVuSans-30"/>
      </g>
     </g>
    </g>
    <g id="xtick_6">
     <g id="line2d_6">
      <g>
       <use style="stroke:#000000;stroke-width:0.8;" x="394.48088" xlink:href="#me66ed7ecc0" y="288.430125"/>
      </g>
     </g>
     <g id="text_6">
      <!-- 1000000 -->
      <defs>
       <path d="M 12.40625 8.296875 
L 28.515625 8.296875 
L 28.515625 63.921875 
L 10.984375 60.40625 
L 10.984375 69.390625 
L 28.421875 72.90625 
L 38.28125 72.90625 
L 38.28125 8.296875 
L 54.390625 8.296875 
L 54.390625 0 
L 12.40625 0 
z
" id="DejaVuSans-31"/>
      </defs>
      <g transform="translate(372.21213 303.028562)scale(0.1 -0.1)">
       <use xlink:href="#DejaVuSans-31"/>
       <use x="63.623047" xlink:href="#DejaVuSans-30"/>
       <use x="127.246094" xlink:href="#DejaVuSans-30"/>
       <use x="190.869141" xlink:href="#DejaVuSans-30"/>
       <use x="254.492188" xlink:href="#DejaVuSans-30"/>
       <use x="318.115234" xlink:href="#DejaVuSans-30"/>
       <use x="381.738281" xlink:href="#DejaVuSans-30"/>
      </g>
     </g>
    </g>
    <g id="text_7">
     <!-- Timesteps -->
     <defs>
      <path d="M -0.296875 72.90625 
L 61.375 72.90625 
L 61.375 64.59375 
L 35.5 64.59375 
L 35.5 0 
L 25.59375 0 
L 25.59375 64.59375 
L -0.296875 64.59375 
z
" id="DejaVuSans-54"/>
      <path d="M 9.421875 54.6875 
L 18.40625 54.6875 
L 18.40625 0 
L 9.421875 0 
z
M 9.421875 75.984375 
L 18.40625 75.984375 
L 18.40625 64.59375 
L 9.421875 64.59375 
z
" id="DejaVuSans-69"/>
      <path d="M 52 44.1875 
Q 55.375 50.25 60.0625 53.125 
Q 64.75 56 71.09375 56 
Q 79.640625 56 84.28125 50.015625 
Q 88.921875 44.046875 88.921875 33.015625 
L 88.921875 0 
L 79.890625 0 
L 79.890625 32.71875 
Q 79.890625 40.578125 77.09375 44.375 
Q 74.3125 48.1875 68.609375 48.1875 
Q 61.625 48.1875 57.5625 43.546875 
Q 53.515625 38.921875 53.515625 30.90625 
L 53.515625 0 
L 44.484375 0 
L 44.484375 32.71875 
Q 44.484375 40.625 41.703125 44.40625 
Q 38.921875 48.1875 33.109375 48.1875 
Q 26.21875 48.1875 22.15625 43.53125 
Q 18.109375 38.875 18.109375 30.90625 
L 18.109375 0 
L 9.078125 0 
L 9.078125 54.6875 
L 18.109375 54.6875 
L 18.109375 46.1875 
Q 21.1875 51.21875 25.484375 53.609375 
Q 29.78125 56 35.6875 56 
Q 41.65625 56 45.828125 52.96875 
Q 50 49.953125 52 44.1875 
z
" id="DejaVuSans-6d"/>
      <path d="M 56.203125 29.59375 
L 56.203125 25.203125 
L 14.890625 25.203125 
Q 15.484375 15.921875 20.484375 11.0625 
Q 25.484375 6.203125 34.421875 6.203125 
Q 39.59375 6.203125 44.453125 7.46875 
Q 49.3125 8.734375 54.109375 11.28125 
L 54.109375 2.78125 
Q 49.265625 0.734375 44.1875 -0.34375 
Q 39.109375 -1.421875 33.890625 -1.421875 
Q 20.796875 -1.421875 13.15625 6.1875 
Q 5.515625 13.8125 5.515625 26.8125 
Q 5.515625 40.234375 12.765625 48.109375 
Q 20.015625 56 32.328125 56 
Q 43.359375 56 49.78125 48.890625 
Q 56.203125 41.796875 56.203125 29.59375 
z
M 47.21875 32.234375 
Q 47.125 39.59375 43.09375 43.984375 
Q 39.0625 48.390625 32.421875 48.390625 
Q 24.90625 48.390625 20.390625 44.140625 
Q 15.875 39.890625 15.1875 32.171875 
z
" id="DejaVuSans-65"/>
      <path d="M 44.28125 53.078125 
L 44.28125 44.578125 
Q 40.484375 46.53125 36.375 47.5 
Q 32.28125 48.484375 27.875 48.484375 
Q 21.1875 48.484375 17.84375 46.4375 
Q 14.5 44.390625 14.5 40.28125 
Q 14.5 37.15625 16.890625 35.375 
Q 19.28125 33.59375 26.515625 31.984375 
L 29.59375 31.296875 
Q 39.15625 29.25 43.1875 25.515625 
Q 47.21875 21.78125 47.21875 15.09375 
Q 47.21875 7.46875 41.1875 3.015625 
Q 35.15625 -1.421875 24.609375 -1.421875 
Q 20.21875 -1.421875 15.453125 -0.5625 
Q 10.6875 0.296875 5.421875 2 
L 5.421875 11.28125 
Q 10.40625 8.6875 15.234375 7.390625 
Q 20.0625 6.109375 24.8125 6.109375 
Q 31.15625 6.109375 34.5625 8.28125 
Q 37.984375 10.453125 37.984375 14.40625 
Q 37.984375 18.0625 35.515625 20.015625 
Q 33.0625 21.96875 24.703125 23.78125 
L 21.578125 24.515625 
Q 13.234375 26.265625 9.515625 29.90625 
Q 5.8125 33.546875 5.8125 39.890625 
Q 5.8125 47.609375 11.28125 51.796875 
Q 16.75 56 26.8125 56 
Q 31.78125 56 36.171875 55.265625 
Q 40.578125 54.546875 44.28125 53.078125 
z
" id="DejaVuSans-73"/>
      <path d="M 18.3125 70.21875 
L 18.3125 54.6875 
L 36.8125 54.6875 
L 36.8125 47.703125 
L 18.3125 47.703125 
L 18.3125 18.015625 
Q 18.3125 11.328125 20.140625 9.421875 
Q 21.96875 7.515625 27.59375 7.515625 
L 36.8125 7.515625 
L 36.8125 0 
L 27.59375 0 
Q 17.1875 0 13.234375 3.875 
Q 9.28125 7.765625 9.28125 18.015625 
L 9.28125 47.703125 
L 2.6875 47.703125 
L 2.6875 54.6875 
L 9.28125 54.6875 
L 9.28125 70.21875 
z
" id="DejaVuSans-74"/>
      <path d="M 18.109375 8.203125 
L 18.109375 -20.796875 
L 9.078125 -20.796875 
L 9.078125 54.6875 
L 18.109375 54.6875 
L 18.109375 46.390625 
Q 20.953125 51.265625 25.265625 53.625 
Q 29.59375 56 35.59375 56 
Q 45.5625 56 51.78125 48.09375 
Q 58.015625 40.1875 58.015625 27.296875 
Q 58.015625 14.40625 51.78125 6.484375 
Q 45.5625 -1.421875 35.59375 -1.421875 
Q 29.59375 -1.421875 25.265625 0.953125 
Q 20.953125 3.328125 18.109375 8.203125 
z
M 48.6875 27.296875 
Q 48.6875 37.203125 44.609375 42.84375 
Q 40.53125 48.484375 33.40625 48.484375 
Q 26.265625 48.484375 22.1875 42.84375 
Q 18.109375 37.203125 18.109375 27.296875 
Q 18.109375 17.390625 22.1875 11.75 
Q 26.265625 6.109375 33.40625 6.109375 
Q 40.53125 6.109375 44.609375 11.75 
Q 48.6875 17.390625 48.6875 27.296875 
z
" id="DejaVuSans-70"/>
     </defs>
     <g transform="translate(206.080313 316.706687)scale(0.1 -0.1)">
      <use xlink:href="#DejaVuSans-54"/>
      <use x="61.037109" xlink:href="#DejaVuSans-69"/>
      <use x="88.820312" xlink:href="#DejaVuSans-6d"/>
      <use x="186.232422" xlink:href="#DejaVuSans-65"/>
      <use x="247.755859" xlink:href="#DejaVuSans-73"/>
      <use x="299.855469" xlink:href="#DejaVuSans-74"/>
      <use x="339.064453" xlink:href="#DejaVuSans-65"/>
      <use x="400.587891" xlink:href="#DejaVuSans-70"/>
      <use x="464.064453" xlink:href="#DejaVuSans-73"/>
     </g>
    </g>
   </g>
   <g id="matplotlib.axis_2">
    <g id="ytick_1">
     <g id="line2d_7">
      <defs>
       <path d="M 0 0 
L -3.5 0 
" id="m9a3d0f78bf" style="stroke:#000000;stroke-width:0.8;"/>
      </defs>
      <g>
       <use style="stroke:#000000;stroke-width:0.8;" x="53.328125" xlink:href="#m9a3d0f78bf" y="276.334125"/>
      </g>
     </g>
     <g id="text_8">
      <!-- 0 -->
      <g transform="translate(39.965625 280.133344)scale(0.1 -0.1)">
       <use xlink:href="#DejaVuSans-30"/>
      </g>
     </g>
    </g>
    <g id="ytick_2">
     <g id="line2d_8">
      <g>
       <use style="stroke:#000000;stroke-width:0.8;" x="53.328125" xlink:href="#m9a3d0f78bf" y="244.650138"/>
      </g>
     </g>
     <g id="text_9">
      <!-- 1000 -->
      <g transform="translate(20.878125 248.449357)scale(0.1 -0.1)">
       <use xlink:href="#DejaVuSans-31"/>
       <use x="63.623047" xlink:href="#DejaVuSans-30"/>
       <use x="127.246094" xlink:href="#DejaVuSans-30"/>
       <use x="190.869141" xlink:href="#DejaVuSans-30"/>
      </g>
     </g>
    </g>
    <g id="ytick_3">
     <g id="line2d_9">
      <g>
       <use style="stroke:#000000;stroke-width:0.8;" x="53.328125" xlink:href="#m9a3d0f78bf" y="212.966151"/>
      </g>
     </g>
     <g id="text_10">
      <!-- 2000 -->
      <g transform="translate(20.878125 216.76537)scale(0.1 -0.1)">
       <use xlink:href="#DejaVuSans-32"/>
       <use x="63.623047" xlink:href="#DejaVuSans-30"/>
       <use x="127.246094" xlink:href="#DejaVuSans-30"/>
       <use x="190.869141" xlink:href="#DejaVuSans-30"/>
      </g>
     </g>
    </g>
    <g id="ytick_4">
     <g id="line2d_10">
      <g>
       <use style="stroke:#000000;stroke-width:0.8;" x="53.328125" xlink:href="#m9a3d0f78bf" y="181.282164"/>
      </g>
     </g>
     <g id="text_11">
      <!-- 3000 -->
      <defs>
       <path d="M 40.578125 39.3125 
Q 47.65625 37.796875 51.625 33 
Q 55.609375 28.21875 55.609375 21.1875 
Q 55.609375 10.40625 48.1875 4.484375 
Q 40.765625 -1.421875 27.09375 -1.421875 
Q 22.515625 -1.421875 17.65625 -0.515625 
Q 12.796875 0.390625 7.625 2.203125 
L 7.625 11.71875 
Q 11.71875 9.328125 16.59375 8.109375 
Q 21.484375 6.890625 26.8125 6.890625 
Q 36.078125 6.890625 40.9375 10.546875 
Q 45.796875 14.203125 45.796875 21.1875 
Q 45.796875 27.640625 41.28125 31.265625 
Q 36.765625 34.90625 28.71875 34.90625 
L 20.21875 34.90625 
L 20.21875 43.015625 
L 29.109375 43.015625 
Q 36.375 43.015625 40.234375 45.921875 
Q 44.09375 48.828125 44.09375 54.296875 
Q 44.09375 59.90625 40.109375 62.90625 
Q 36.140625 65.921875 28.71875 65.921875 
Q 24.65625 65.921875 20.015625 65.03125 
Q 15.375 64.15625 9.8125 62.3125 
L 9.8125 71.09375 
Q 15.4375 72.65625 20.34375 73.4375 
Q 25.25 74.21875 29.59375 74.21875 
Q 40.828125 74.21875 47.359375 69.109375 
Q 53.90625 64.015625 53.90625 55.328125 
Q 53.90625 49.265625 50.4375 45.09375 
Q 46.96875 40.921875 40.578125 39.3125 
z
" id="DejaVuSans-33"/>
      </defs>
      <g transform="translate(20.878125 185.081383)scale(0.1 -0.1)">
       <use xlink:href="#DejaVuSans-33"/>
       <use x="63.623047" xlink:href="#DejaVuSans-30"/>
       <use x="127.246094" xlink:href="#DejaVuSans-30"/>
       <use x="190.869141" xlink:href="#DejaVuSans-30"/>
      </g>
     </g>
    </g>
    <g id="ytick_5">
     <g id="line2d_11">
      <g>
       <use style="stroke:#000000;stroke-width:0.8;" x="53.328125" xlink:href="#m9a3d0f78bf" y="149.598177"/>
      </g>
     </g>
     <g id="text_12">
      <!-- 4000 -->
      <g transform="translate(20.878125 153.397396)scale(0.1 -0.1)">
       <use xlink:href="#DejaVuSans-34"/>
       <use x="63.623047" xlink:href="#DejaVuSans-30"/>
       <use x="127.246094" xlink:href="#DejaVuSans-30"/>
       <use x="190.869141" xlink:href="#DejaVuSans-30"/>
      </g>
     </g>
    </g>
    <g id="ytick_6">
     <g id="line2d_12">
      <g>
       <use style="stroke:#000000;stroke-width:0.8;" x="53.328125" xlink:href="#m9a3d0f78bf" y="117.91419"/>
      </g>
     </g>
     <g id="text_13">
      <!-- 5000 -->
      <defs>
       <path d="M 10.796875 72.90625 
L 49.515625 72.90625 
L 49.515625 64.59375 
L 19.828125 64.59375 
L 19.828125 46.734375 
Q 21.96875 47.46875 24.109375 47.828125 
Q 26.265625 48.1875 28.421875 48.1875 
Q 40.625 48.1875 47.75 41.5 
Q 54.890625 34.8125 54.890625 23.390625 
Q 54.890625 11.625 47.5625 5.09375 
Q 40.234375 -1.421875 26.90625 -1.421875 
Q 22.3125 -1.421875 17.546875 -0.640625 
Q 12.796875 0.140625 7.71875 1.703125 
L 7.71875 11.625 
Q 12.109375 9.234375 16.796875 8.0625 
Q 21.484375 6.890625 26.703125 6.890625 
Q 35.15625 6.890625 40.078125 11.328125 
Q 45.015625 15.765625 45.015625 23.390625 
Q 45.015625 31 40.078125 35.4375 
Q 35.15625 39.890625 26.703125 39.890625 
Q 22.75 39.890625 18.8125 39.015625 
Q 14.890625 38.140625 10.796875 36.28125 
z
" id="DejaVuSans-35"/>
      </defs>
      <g transform="translate(20.878125 121.713409)scale(0.1 -0.1)">
       <use xlink:href="#DejaVuSans-35"/>
       <use x="63.623047" xlink:href="#DejaVuSans-30"/>
       <use x="127.246094" xlink:href="#DejaVuSans-30"/>
       <use x="190.869141" xlink:href="#DejaVuSans-30"/>
      </g>
     </g>
    </g>
    <g id="ytick_7">
     <g id="line2d_13">
      <g>
       <use style="stroke:#000000;stroke-width:0.8;" x="53.328125" xlink:href="#m9a3d0f78bf" y="86.230203"/>
      </g>
     </g>
     <g id="text_14">
      <!-- 6000 -->
      <g transform="translate(20.878125 90.029422)scale(0.1 -0.1)">
       <use xlink:href="#DejaVuSans-36"/>
       <use x="63.623047" xlink:href="#DejaVuSans-30"/>
       <use x="127.246094" xlink:href="#DejaVuSans-30"/>
       <use x="190.869141" xlink:href="#DejaVuSans-30"/>
      </g>
     </g>
    </g>
    <g id="ytick_8">
     <g id="line2d_14">
      <g>
       <use style="stroke:#000000;stroke-width:0.8;" x="53.328125" xlink:href="#m9a3d0f78bf" y="54.546216"/>
      </g>
     </g>
     <g id="text_15">
      <!-- 7000 -->
      <defs>
       <path d="M 8.203125 72.90625 
L 55.078125 72.90625 
L 55.078125 68.703125 
L 28.609375 0 
L 18.3125 0 
L 43.21875 64.59375 
L 8.203125 64.59375 
z
" id="DejaVuSans-37"/>
      </defs>
      <g transform="translate(20.878125 58.345435)scale(0.1 -0.1)">
       <use xlink:href="#DejaVuSans-37"/>
       <use x="63.623047" xlink:href="#DejaVuSans-30"/>
       <use x="127.246094" xlink:href="#DejaVuSans-30"/>
       <use x="190.869141" xlink:href="#DejaVuSans-30"/>
      </g>
     </g>
    </g>
    <g id="ytick_9">
     <g id="line2d_15">
      <g>
       <use style="stroke:#000000;stroke-width:0.8;" x="53.328125" xlink:href="#m9a3d0f78bf" y="22.862229"/>
      </g>
     </g>
     <g id="text_16">
      <!-- 8000 -->
      <g transform="translate(20.878125 26.661448)scale(0.1 -0.1)">
       <use xlink:href="#DejaVuSans-38"/>
       <use x="63.623047" xlink:href="#DejaVuSans-30"/>
       <use x="127.246094" xlink:href="#DejaVuSans-30"/>
       <use x="190.869141" xlink:href="#DejaVuSans-30"/>
      </g>
     </g>
    </g>
    <g id="text_17">
     <!-- Mean Reward -->
     <defs>
      <path d="M 9.8125 72.90625 
L 24.515625 72.90625 
L 43.109375 23.296875 
L 61.8125 72.90625 
L 76.515625 72.90625 
L 76.515625 0 
L 66.890625 0 
L 66.890625 64.015625 
L 48.09375 14.015625 
L 38.1875 14.015625 
L 19.390625 64.015625 
L 19.390625 0 
L 9.8125 0 
z
" id="DejaVuSans-4d"/>
      <path d="M 34.28125 27.484375 
Q 23.390625 27.484375 19.1875 25 
Q 14.984375 22.515625 14.984375 16.5 
Q 14.984375 11.71875 18.140625 8.90625 
Q 21.296875 6.109375 26.703125 6.109375 
Q 34.1875 6.109375 38.703125 11.40625 
Q 43.21875 16.703125 43.21875 25.484375 
L 43.21875 27.484375 
z
M 52.203125 31.203125 
L 52.203125 0 
L 43.21875 0 
L 43.21875 8.296875 
Q 40.140625 3.328125 35.546875 0.953125 
Q 30.953125 -1.421875 24.3125 -1.421875 
Q 15.921875 -1.421875 10.953125 3.296875 
Q 6 8.015625 6 15.921875 
Q 6 25.140625 12.171875 29.828125 
Q 18.359375 34.515625 30.609375 34.515625 
L 43.21875 34.515625 
L 43.21875 35.40625 
Q 43.21875 41.609375 39.140625 45 
Q 35.0625 48.390625 27.6875 48.390625 
Q 23 48.390625 18.546875 47.265625 
Q 14.109375 46.140625 10.015625 43.890625 
L 10.015625 52.203125 
Q 14.9375 54.109375 19.578125 55.046875 
Q 24.21875 56 28.609375 56 
Q 40.484375 56 46.34375 49.84375 
Q 52.203125 43.703125 52.203125 31.203125 
z
" id="DejaVuSans-61"/>
      <path d="M 54.890625 33.015625 
L 54.890625 0 
L 45.90625 0 
L 45.90625 32.71875 
Q 45.90625 40.484375 42.875 44.328125 
Q 39.84375 48.1875 33.796875 48.1875 
Q 26.515625 48.1875 22.3125 43.546875 
Q 18.109375 38.921875 18.109375 30.90625 
L 18.109375 0 
L 9.078125 0 
L 9.078125 54.6875 
L 18.109375 54.6875 
L 18.109375 46.1875 
Q 21.34375 51.125 25.703125 53.5625 
Q 30.078125 56 35.796875 56 
Q 45.21875 56 50.046875 50.171875 
Q 54.890625 44.34375 54.890625 33.015625 
z
" id="DejaVuSans-6e"/>
      <path id="DejaVuSans-20"/>
      <path d="M 44.390625 34.1875 
Q 47.5625 33.109375 50.5625 29.59375 
Q 53.5625 26.078125 56.59375 19.921875 
L 66.609375 0 
L 56 0 
L 46.6875 18.703125 
Q 43.0625 26.03125 39.671875 28.421875 
Q 36.28125 30.8125 30.421875 30.8125 
L 19.671875 30.8125 
L 19.671875 0 
L 9.8125 0 
L 9.8125 72.90625 
L 32.078125 72.90625 
Q 44.578125 72.90625 50.734375 67.671875 
Q 56.890625 62.453125 56.890625 51.90625 
Q 56.890625 45.015625 53.6875 40.46875 
Q 50.484375 35.9375 44.390625 34.1875 
z
M 19.671875 64.796875 
L 19.671875 38.921875 
L 32.078125 38.921875 
Q 39.203125 38.921875 42.84375 42.21875 
Q 46.484375 45.515625 46.484375 51.90625 
Q 46.484375 58.296875 42.84375 61.546875 
Q 39.203125 64.796875 32.078125 64.796875 
z
" id="DejaVuSans-52"/>
      <path d="M 4.203125 54.6875 
L 13.1875 54.6875 
L 24.421875 12.015625 
L 35.59375 54.6875 
L 46.1875 54.6875 
L 57.421875 12.015625 
L 68.609375 54.6875 
L 77.59375 54.6875 
L 63.28125 0 
L 52.6875 0 
L 40.921875 44.828125 
L 29.109375 0 
L 18.5 0 
z
" id="DejaVuSans-77"/>
      <path d="M 41.109375 46.296875 
Q 39.59375 47.171875 37.8125 47.578125 
Q 36.03125 48 33.890625 48 
Q 26.265625 48 22.1875 43.046875 
Q 18.109375 38.09375 18.109375 28.8125 
L 18.109375 0 
L 9.078125 0 
L 9.078125 54.6875 
L 18.109375 54.6875 
L 18.109375 46.1875 
Q 20.953125 51.171875 25.484375 53.578125 
Q 30.03125 56 36.53125 56 
Q 37.453125 56 38.578125 55.875 
Q 39.703125 55.765625 41.0625 55.515625 
z
" id="DejaVuSans-72"/>
      <path d="M 45.40625 46.390625 
L 45.40625 75.984375 
L 54.390625 75.984375 
L 54.390625 0 
L 45.40625 0 
L 45.40625 8.203125 
Q 42.578125 3.328125 38.25 0.953125 
Q 33.9375 -1.421875 27.875 -1.421875 
Q 17.96875 -1.421875 11.734375 6.484375 
Q 5.515625 14.40625 5.515625 27.296875 
Q 5.515625 40.1875 11.734375 48.09375 
Q 17.96875 56 27.875 56 
Q 33.9375 56 38.25 53.625 
Q 42.578125 51.265625 45.40625 46.390625 
z
M 14.796875 27.296875 
Q 14.796875 17.390625 18.875 11.75 
Q 22.953125 6.109375 30.078125 6.109375 
Q 37.203125 6.109375 41.296875 11.75 
Q 45.40625 17.390625 45.40625 27.296875 
Q 45.40625 37.203125 41.296875 42.84375 
Q 37.203125 48.484375 30.078125 48.484375 
Q 22.953125 48.484375 18.875 42.84375 
Q 14.796875 37.203125 14.796875 27.296875 
z
" id="DejaVuSans-64"/>
     </defs>
     <g transform="translate(14.798438 189.516312)rotate(-90)scale(0.1 -0.1)">
      <use xlink:href="#DejaVuSans-4d"/>
      <use x="86.279297" xlink:href="#DejaVuSans-65"/>
      <use x="147.802734" xlink:href="#DejaVuSans-61"/>
      <use x="209.082031" xlink:href="#DejaVuSans-6e"/>
      <use x="272.460938" xlink:href="#DejaVuSans-20"/>
      <use x="304.248047" xlink:href="#DejaVuSans-52"/>
      <use x="373.667969" xlink:href="#DejaVuSans-65"/>
      <use x="435.191406" xlink:href="#DejaVuSans-77"/>
      <use x="516.978516" xlink:href="#DejaVuSans-61"/>
      <use x="578.257812" xlink:href="#DejaVuSans-72"/>
      <use x="619.355469" xlink:href="#DejaVuSans-64"/>
     </g>
    </g>
   </g>
   <g id="line2d_16">
    <path clip-path="url(#p6f3ca56857)" d="M 69.560852 243.725131 
L 69.588798 243.725131 
L 69.801639 156.586358 
L 69.834458 157.12873 
L 69.955989 158.21608 
L 70.011555 142.320529 
L 70.035601 157.468086 
L 70.057698 163.619903 
L 70.10579 163.35724 
L 70.287436 163.038448 
L 70.316031 166.703292 
L 70.965277 165.50058 
L 71.176494 165.198569 
L 71.296724 164.633175 
L 71.620048 149.267249 
L 71.824115 143.725935 
L 72.962083 143.811687 
L 72.982229 141.461753 
L 73.119358 140.79734 
L 73.513844 130.726845 
L 73.556088 130.904363 
L 73.577859 133.622905 
L 73.731884 130.018522 
L 73.894683 130.199702 
L 74.254076 126.87484 
L 74.276172 129.455286 
L 74.424349 129.711105 
L 74.581623 129.388362 
L 74.678783 126.347377 
L 74.702179 126.633736 
L 74.980335 128.443303 
L 75.19415 124.17849 
L 75.420639 121.515515 
L 75.48043 119.000968 
L 75.502201 121.20994 
L 75.863868 113.970717 
L 75.886614 114.403009 
L 76.00977 115.726231 
L 76.4426 115.737517 
L 76.683712 116.471975 
L 77.19518 115.123743 
L 77.44279 115.726048 
L 77.593241 112.615011 
L 77.658556 118.128174 
L 77.699174 116.182404 
L 77.917539 112.424107 
L 78.145978 112.464711 
L 78.235338 113.04966 
L 78.251586 111.324257 
L 78.324699 111.90886 
L 78.56971 113.039476 
L 78.659071 113.583633 
L 78.905056 113.908559 
L 79.00514 114.426292 
L 79.379805 113.497964 
L 79.420099 114.912496 
L 79.713852 113.885473 
L 80.121336 113.881047 
L 80.467406 115.204963 
L 80.567165 115.671191 
L 80.568465 114.151271 
L 80.666924 114.61811 
L 80.873591 115.785955 
L 80.882365 115.802116 
L 81.176118 114.126491 
L 81.244032 114.382413 
L 81.455898 114.606882 
L 81.768823 111.927566 
L 81.87703 112.368987 
L 81.981664 111.08194 
L 82.003435 112.364022 
L 82.241622 111.09231 
L 82.472985 112.257826 
L 82.581193 112.671281 
L 82.706298 112.03826 
L 82.844076 112.420356 
L 82.922713 111.195229 
L 83.581058 107.177407 
L 83.621351 108.261119 
L 83.798123 108.574512 
L 83.848165 107.448218 
L 83.888458 108.504162 
L 84.115272 107.395736 
L 84.306341 107.456554 
L 84.414549 107.86071 
L 84.751845 106.800084 
L 84.874675 107.204003 
L 84.927967 106.778895 
L 85.225619 105.751793 
L 85.260389 106.141138 
L 85.326353 105.140993 
L 85.363722 105.93963 
L 85.467056 106.717886 
L 85.577538 105.633391 
L 85.579813 106.012103 
L 86.024016 107.178316 
L 86.2856 107.760155 
L 86.572204 106.831663 
L 86.693084 107.183701 
L 87.019007 105.910152 
L 87.039804 105.437613 
L 87.06255 107.330942 
L 87.2221 107.998578 
L 87.266617 107.11221 
L 87.367676 107.165962 
L 87.475884 107.494496 
L 87.565895 106.642651 
L 88.06014 107.930471 
L 88.266807 107.083658 
L 88.373715 107.381474 
L 88.585906 107.474266 
L 88.728883 107.069478 
L 88.93815 107.15053 
L 88.945299 106.338197 
L 89.046358 106.646599 
L 89.15489 106.952718 
L 89.172112 106.156373 
L 89.27772 106.460645 
L 89.387553 105.674447 
L 89.440194 105.978519 
L 89.731998 104.447419 
L 89.84053 104.753842 
L 89.987082 104.257298 
L 90.048172 105.110336 
L 90.205122 104.38167 
L 90.31333 104.680375 
L 90.407565 103.965433 
L 90.43616 104.262725 
L 90.675322 104.749741 
L 91.077282 102.886417 
L 91.221559 103.470327 
L 91.295972 102.774113 
L 91.543258 102.910657 
L 91.846109 103.745872 
L 92.267892 103.484943 
L 92.670827 102.831488 
L 92.758238 104.353366 
L 93.005524 104.403123 
L 93.041268 104.580424 
L 93.268731 103.922383 
L 93.308375 103.970647 
L 93.429256 104.234993 
L 93.575807 103.595677 
L 93.703512 103.859869 
L 94.176636 103.611953 
L 94.198408 104.307594 
L 94.467789 103.393349 
L 94.590945 103.651961 
L 94.789163 102.402683 
L 94.891522 102.135296 
L 94.948063 101.532873 
L 94.999404 101.794911 
L 95.126134 101.202802 
L 95.21192 101.314565 
L 95.319803 101.57301 
L 95.384143 100.980989 
L 95.593734 100.39324 
L 95.650925 99.821754 
L 95.772131 100.082664 
L 96.069133 99.514219 
L 96.190014 99.773718 
L 96.410328 99.436011 
L 96.503913 98.878938 
L 96.5884 98.950251 
L 96.624794 99.208282 
L 96.927971 98.11383 
L 97.169732 98.684715 
L 97.274365 98.140347 
L 97.300036 98.394361 
L 97.43359 98.646213 
L 97.49143 98.108412 
L 97.764712 97.584741 
L 98.050666 97.658033 
L 98.061389 97.137332 
L 98.182595 97.388821 
L 98.191368 97.202254 
L 98.732732 95.683934 
L 98.855562 95.935831 
L 98.953696 95.562509 
L 98.96377 95.813747 
L 99.071977 96.062265 
L 99.364106 95.567042 
L 99.472313 95.815409 
L 99.644861 95.886564 
L 99.731297 95.394907 
L 99.766066 95.641128 
L 99.887272 95.885174 
L 100.081916 95.237527 
L 100.128058 94.755882 
L 100.216119 94.999152 
L 100.276235 95.180421 
L 100.341549 96.927995 
L 100.415962 96.510921 
L 100.534568 96.741797 
L 101.590324 96.802075 
L 101.803815 96.632613 
L 101.809989 96.163185 
L 101.876278 96.232303 
L 101.93087 96.460518 
L 102.141761 95.87499 
L 102.237945 95.670393 
L 102.449812 95.895773 
L 102.667852 95.441714 
L 103.266081 95.284712 
L 103.446752 95.354914 
L 103.4617 95.170354 
L 103.763576 95.86651 
L 104.130117 95.700273 
L 104.345558 95.260347 
L 105.066293 95.321345 
L 105.277184 94.688129 
L 105.45623 94.261226 
L 105.481576 93.835278 
L 105.712614 93.41578 
L 105.807824 93.482353 
L 105.888411 94.451177 
L 106.725802 93.036901 
L 107.082595 93.502466 
L 107.285362 93.074518 
L 107.527773 93.28721 
L 107.577815 92.897597 
L 107.742239 92.497716 
L 107.992449 92.631902 
L 107.997323 92.782944 
L 108.296275 92.13905 
L 108.419106 92.349406 
L 108.490594 91.963418 
L 108.576381 92.123942 
L 109.459589 91.951805 
L 109.667881 91.567583 
L 109.685753 91.72602 
L 109.707524 92.216262 
L 109.844003 92.421111 
L 109.993154 93.406436 
L 110.038646 93.253385 
L 110.146854 93.452189 
L 110.345397 92.335535 
L 110.369119 92.809801 
L 110.600157 93.202658 
L 110.937453 92.839434 
L 111.056708 92.506284 
L 111.090178 92.572705 
L 111.538606 93.252669 
L 111.561028 92.891506 
L 111.647139 93.081602 
L 111.652013 93.224641 
L 111.67346 93.069091 
L 111.900598 92.007776 
L 111.977611 92.197168 
L 112.342853 92.990261 
L 112.585264 93.242928 
L 112.754237 92.898466 
L 112.784457 93.30051 
L 113.234185 92.691774 
L 113.292675 92.872285 
L 113.51234 92.725282 
L 113.721607 92.41371 
L 113.739804 92.078655 
L 114.04753 92.77652 
L 114.219427 92.443888 
L 114.336408 92.503965 
L 114.434868 92.174029 
L 114.488809 92.351008 
L 114.754941 92.666083 
L 114.907342 92.339677 
L 114.915141 92.020494 
L 115.394764 92.3599 
L 115.897133 92.158987 
L 116.335163 91.287535 
L 116.522658 91.480516 
L 116.688707 91.651688 
L 116.88725 91.336773 
L 117.10399 91.678189 
L 117.396118 91.370464 
L 117.504326 91.540623 
L 117.57484 91.309083 
L 117.627157 91.477762 
L 117.735364 91.646135 
L 117.797429 91.517869 
L 117.831874 91.974738 
L 118.506141 91.06602 
L 119.283091 90.529664 
L 119.419894 90.752347 
L 119.51153 90.454583 
L 119.556698 90.620501 
L 119.722421 90.324103 
L 120.499372 90.581106 
L 120.54064 90.294447 
L 120.649823 90.449838 
L 120.740158 89.877253 
L 121.184687 89.935714 
L 122.112088 89.827069 
L 122.188776 89.651227 
L 122.202424 89.708304 
L 122.35515 89.767026 
L 122.404542 89.483498 
L 122.47798 89.644877 
L 122.622907 89.363024 
L 122.646953 89.458175 
L 122.752886 89.61817 
L 123.089857 89.344619 
L 123.460947 89.820178 
L 123.778422 89.443468 
L 124.204753 88.841033 
L 124.217101 88.997818 
L 124.450739 89.309607 
L 124.704198 89.040497 
L 125.03662 88.939417 
L 125.164325 89.094819 
L 125.571485 88.883397 
L 125.617302 89.038113 
L 125.679367 88.840313 
L 126.166464 88.253782 
L 126.276297 88.401253 
L 126.739673 87.878516 
L 127.236843 87.9413 
L 127.576089 87.835004 
L 127.620282 88.535325 
L 127.847095 88.277266 
L 128.201938 88.335393 
L 128.460922 88.080259 
L 128.496016 88.137808 
L 128.699109 88.035987 
L 128.720555 87.529405 
L 128.883029 87.67956 
L 130.182821 87.44545 
L 130.31735 87.911738 
L 130.345295 87.967976 
L 130.84734 88.127714 
L 131.216806 87.631473 
L 131.257099 87.9436 
L 131.436471 87.998989 
L 131.623641 87.907837 
L 131.651911 87.661818 
L 131.779616 87.718808 
L 132.152981 87.003585 
L 132.339176 87.116552 
L 132.566315 86.875955 
L 133.469995 86.844885 
L 133.665939 86.608929 
L 133.823213 86.767923 
L 134.028581 86.960741 
L 134.473434 86.022864 
L 134.50333 86.32486 
L 134.730143 86.091748 
L 134.81073 86.69197 
L 134.932261 86.746934 
L 135.252984 86.053285 
L 135.280605 86.350722 
L 135.491171 85.891672 
L 135.605553 86.392245 
L 135.750155 86.16475 
L 135.899631 86.304269 
L 136.12677 86.078121 
L 136.195984 86.660586 
L 136.630114 86.209509 
L 136.670408 86.498949 
L 136.894297 86.274808 
L 137.038899 86.378691 
L 137.067819 86.298147 
L 137.269287 85.855047 
L 137.695618 85.413947 
L 137.820398 85.550876 
L 138.03129 85.331575 
L 138.158344 85.467943 
L 138.530085 85.447352 
L 138.583701 85.394481 
L 138.622695 85.52976 
L 138.810515 85.31347 
L 138.891102 85.877159 
L 139.74474 85.068167 
L 140.300401 85.292418 
L 141.207006 85.1652 
L 141.2473 85.441228 
L 141.762667 85.563647 
L 142.018401 85.52277 
L 142.297532 85.625208 
L 142.326127 85.897273 
L 143.060184 85.491784 
L 143.067983 85.620342 
L 143.405279 85.843339 
L 143.635992 85.9708 
L 144.471758 85.94851 
L 144.530249 85.994007 
L 145.098258 86.040515 
L 145.12068 86.32609 
L 145.992515 86.232078 
L 146.032809 86.494804 
L 146.36458 85.885578 
L 146.703501 86.174467 
L 147.033648 85.896074 
L 147.130808 86.326706 
L 147.262737 86.126848 
L 148.495914 86.1506 
L 148.593074 86.101645 
L 148.64604 86.222719 
L 149.036628 85.652259 
L 149.128913 85.77347 
L 149.376848 85.579395 
L 149.597813 85.63199 
L 149.629333 85.438917 
L 149.640706 85.487199 
L 149.748589 85.576502 
L 149.969553 85.192501 
L 150.050465 85.313046 
L 150.319197 85.671208 
L 150.498894 85.367673 
L 150.678265 85.415497 
L 150.896305 85.225235 
L 151.102972 85.274215 
L 151.111745 85.084682 
L 151.327186 84.895735 
L 151.367479 85.143379 
L 151.908518 85.126458 
L 152.017375 84.939309 
L 152.26986 84.753297 
L 152.565238 84.802355 
L 152.825196 84.43786 
L 152.829745 84.485602 
L 152.940553 84.602231 
L 153.035762 84.234322 
L 153.262901 84.050831 
L 153.370784 83.808622 
L 153.514411 83.926224 
L 153.555029 83.745106 
L 153.584599 83.988282 
L 154.185753 83.630755 
L 154.527923 83.956479 
L 154.725167 83.885884 
L 154.752138 83.707279 
L 154.898039 83.823364 
L 154.943532 83.64432 
L 154.976677 83.693529 
L 155.043941 83.808935 
L 155.554109 84.038493 
L 156.214728 83.553858 
L 156.217978 83.377634 
L 156.238125 83.632241 
L 156.424645 83.869597 
L 156.438942 83.808467 
L 156.585169 83.85522 
L 157.080715 83.629801 
L 157.516795 83.462617 
L 157.54539 83.695939 
L 158.042561 83.339612 
L 158.313242 83.690277 
L 158.537456 83.518896 
L 158.718128 83.675975 
L 158.945266 83.505357 
L 158.98556 83.734156 
L 159.261441 83.782234 
L 159.642929 83.733847 
L 159.686148 83.589627 
L 159.813852 83.804969 
L 160.953445 83.399241 
L 161.242323 83.175398 
L 161.369703 83.284123 
L 161.456789 83.1186 
L 162.250312 82.697414 
L 162.343897 82.372302 
L 162.375092 82.480634 
L 162.480375 82.588668 
L 162.923279 82.432328 
L 163.059108 82.540586 
L 163.935817 82.835016 
L 163.957589 83.07027 
L 164.033302 82.909048 
L 164.406342 82.534965 
L 164.456709 82.985723 
L 166.048629 81.97212 
L 166.57277 81.866803 
L 166.827529 82.074651 
L 166.941911 81.884918 
L 167.017299 81.962969 
L 167.070915 81.910909 
L 167.376041 81.450839 
L 167.891734 81.555005 
L 167.914155 81.782091 
L 168.533181 81.853544 
L 168.616043 81.702129 
L 168.838307 81.748591 
L 168.934167 82.05995 
L 169.608759 81.467745 
L 169.753036 81.715497 
L 170.210887 81.4103 
L 170.234609 81.631821 
L 170.548508 81.488138 
L 170.556307 81.34892 
L 170.85201 81.05562 
L 171.151612 80.69938 
L 171.265019 80.552414 
L 171.296539 80.757405 
L 171.367052 80.61111 
L 171.407021 80.469349 
L 171.963007 80.020753 
L 171.97828 80.100983 
L 171.991277 79.959862 
L 172.069265 80.060377 
L 172.220691 80.386805 
L 172.616802 79.967892 
L 173.248826 79.796752 
L 173.374906 79.895931 
L 173.682957 79.670561 
L 173.702128 79.532987 
L 174.125861 79.117462 
L 174.177852 78.985117 
L 174.985348 78.491743 
L 175.144248 78.537432 
L 175.216061 78.400522 
L 175.815265 78.170968 
L 176.370276 78.093608 
L 176.846 78.08487 
L 176.889868 77.96231 
L 178.213056 77.29949 
L 178.452218 77.555672 
L 178.695279 77.393533 
L 178.738497 77.58765 
L 179.108938 77.599624 
L 179.170678 77.468024 
L 179.5005 77.214863 
L 179.547293 77.28551 
L 179.929756 77.433629 
L 180.325543 77.168503 
L 180.445774 77.360489 
L 180.787944 77.083896 
L 180.837011 76.830061 
L 181.006634 76.705781 
L 181.044978 76.895542 
L 181.046928 76.76846 
L 181.287389 76.842205 
L 181.503154 76.470854 
L 181.602264 76.733283 
L 181.81348 76.777292 
L 182.415608 76.489906 
L 182.43868 76.690867 
L 182.793523 76.537493 
L 183.005714 76.580288 
L 183.095725 76.378396 
L 183.15519 76.472671 
L 183.304991 76.545155 
L 183.373555 76.420629 
L 183.424247 76.464387 
L 183.433995 76.55795 
L 184.165128 76.237888 
L 184.178451 76.331053 
L 184.314279 76.423882 
L 184.378619 76.300605 
L 184.448483 76.390198 
L 184.568714 76.523913 
L 184.84362 76.326891 
L 184.96515 76.580168 
L 185.408054 76.392737 
L 185.980613 75.6828 
L 186.075172 75.774687 
L 186.592815 75.42048 
L 186.697448 75.30482 
L 187.193968 75.467472 
L 187.996265 75.200065 
L 188.132093 75.33297 
L 188.458666 75.365758 
L 188.482062 75.456615 
L 188.799211 75.181248 
L 188.83593 75.251416 
L 189.460156 74.936611 
L 189.829621 74.824225 
L 190.291697 75.117048 
L 190.374559 75.001856 
L 190.410303 75.041843 
L 190.61957 75.111147 
L 190.641341 74.999071 
L 190.671237 75.173917 
L 190.821038 75.214836 
L 190.922421 75.100792 
L 191.836825 74.80082 
L 191.902464 74.889425 
L 192.280054 74.590058 
L 192.283304 74.631268 
L 192.471448 74.71981 
L 192.504918 74.892471 
L 192.567633 74.783843 
L 192.697287 74.871591 
L 193.740045 74.101971 
L 193.74232 74.140926 
L 193.967184 74.272248 
L 194.570612 74.260204 
L 195.066158 74.048768 
L 195.204586 74.25642 
L 195.431724 74.00206 
L 195.791117 73.791672 
L 196.202826 73.507758 
L 196.288612 73.39976 
L 196.668151 73.624328 
L 196.736715 73.710894 
L 197.336245 73.157678 
L 197.435679 72.944863 
L 197.484746 72.984213 
L 197.697262 72.775731 
L 197.774274 72.673305 
L 197.89743 72.782232 
L 198.030658 72.934395 
L 198.08395 73.019861 
L 199.546216 72.291688 
L 199.859466 72.50225 
L 200.11065 72.29702 
L 200.441772 72.363092 
L 200.878502 72.302532 
L 200.924645 72.342654 
L 200.935693 72.240835 
L 201.082245 72.324772 
L 201.110515 72.22297 
L 201.452036 72.346099 
L 201.524499 72.476568 
L 201.844573 72.243968 
L 201.965778 72.326891 
L 202.070736 72.132265 
L 202.105181 72.172994 
L 202.339468 72.255926 
L 203.130717 72.018505 
L 203.190832 72.083591 
L 203.346157 71.983384 
L 203.426744 72.30158 
L 203.432268 72.201967 
L 204.160152 72.556055 
L 204.88901 72.398374 
L 204.992019 72.479443 
L 206.454285 72.57954 
L 206.588813 72.288287 
L 206.627157 72.368429 
L 206.818226 72.431295 
L 207.16917 72.208904 
L 207.76545 72.079045 
L 207.864884 72.120668 
L 208.029957 72.067206 
L 208.194706 72.282698 
L 208.486834 72.226937 
L 208.557023 72.13975 
L 209.160451 71.920902 
L 209.162726 72.000204 
L 209.308628 72.079179 
L 209.437632 72.295884 
L 209.532517 72.332858 
L 209.82172 72.182208 
L 209.97802 72.123235 
L 210.00954 72.030679 
L 210.034561 72.259922 
L 210.142769 72.166942 
L 210.232455 72.244816 
L 210.245128 72.150221 
L 210.362109 72.03978 
L 210.996732 72.041632 
L 211.441261 71.857282 
L 211.879941 71.980043 
L 212.132101 71.794028 
L 212.682887 71.651472 
L 212.689711 71.689498 
L 212.941871 71.635521 
L 213.425394 71.423509 
L 213.465687 71.571356 
L 213.807532 71.519259 
L 213.901442 71.576532 
L 214.557512 71.250526 
L 215.143393 70.861419 
L 215.224305 70.681554 
L 215.280521 70.757902 
L 215.5733 70.954506 
L 215.595071 71.100008 
L 215.952189 71.050202 
L 216.317755 70.947409 
L 216.328804 71.023007 
L 216.656351 70.963956 
L 217.123951 70.9734 
L 217.473595 70.886814 
L 218.420169 71.103612 
L 218.497831 71.292137 
L 218.707098 71.261676 
L 219.089887 71.336002 
L 221.602059 70.588616 
L 221.651451 70.501981 
L 221.75381 70.649375 
L 222.031316 70.59936 
L 222.127175 70.745825 
L 222.434576 70.646292 
L 222.635394 70.82469 
L 222.855709 70.776232 
L 222.887879 70.691105 
L 222.971715 70.76393 
L 223.342806 70.668556 
L 223.416244 70.775256 
L 223.641433 70.605708 
L 224.37614 70.592592 
L 224.548363 70.545969 
L 225.036759 70.720518 
L 225.101099 70.792171 
L 225.353259 70.708309 
L 225.963836 70.857854 
L 226.499025 71.036671 
L 226.682296 70.991507 
L 226.708292 71.047183 
L 227.583052 71.432336 
L 227.593775 71.349346 
L 228.291763 71.167123 
L 228.396072 71.306045 
L 228.558221 71.228736 
L 228.573168 71.285418 
L 228.900066 71.478113 
L 229.049867 71.581056 
L 229.294553 71.503252 
L 229.328022 71.635652 
L 229.717635 71.829203 
L 229.854763 72.070684 
L 230.153715 72.025082 
L 230.271346 71.946071 
L 230.547552 71.951436 
L 230.571598 71.875076 
L 230.581022 72.005783 
L 231.079817 72.057384 
L 231.131484 71.976243 
L 231.367071 71.815675 
L 231.390467 71.945441 
L 231.599734 72.053163 
L 231.62183 72.191531 
L 232.252229 72.085386 
L 232.289923 72.169672 
L 232.81244 72.384131 
L 232.837785 72.304181 
L 233.857472 72.261277 
L 233.978678 72.378979 
L 234.360167 72.334508 
L 234.583081 72.255461 
L 234.65002 72.355041 
L 235.215755 72.343803 
L 235.440944 72.472445 
L 235.456541 72.392676 
L 236.416113 72.248947 
L 236.421637 72.173216 
L 236.926281 71.945261 
L 237.435799 71.683674 
L 237.455946 71.734697 
L 237.804615 71.587243 
L 237.814364 71.511849 
L 238.150035 71.359028 
L 238.188054 71.284844 
L 238.250119 71.347554 
L 238.786283 71.28411 
L 239.702311 71.472128 
L 239.717259 71.39533 
L 239.875184 71.318704 
L 240.070477 71.468363 
L 240.40095 71.456341 
L 241.179525 71.538297 
L 242.027314 71.161177 
L 242.14657 71.01402 
L 242.843259 70.891427 
L 242.879003 71.070918 
L 242.939768 70.997935 
L 243.125963 70.972563 
L 243.308584 71.021791 
L 243.317683 70.947604 
L 243.579916 70.670838 
L 243.749538 70.66209 
L 243.804455 70.588994 
L 243.89674 70.651859 
L 244.493344 70.335535 
L 244.504393 70.39827 
L 244.647695 70.447628 
L 244.951846 70.405628 
L 245.045431 70.468204 
L 245.755117 70.362212 
L 245.970883 70.320417 
L 246.58341 70.166569 
L 246.729311 70.228834 
L 247.11275 70.177806 
L 247.333065 70.436929 
L 247.704155 70.395421 
L 247.723977 70.457107 
L 248.655278 70.351145 
L 248.679649 70.381254 
L 250.85745 69.946119 
L 251.675994 69.535485 
L 251.809548 69.529079 
L 252.205984 69.522106 
L 252.258951 69.572315 
L 252.902673 69.494028 
L 253.407642 69.367519 
L 253.473607 69.297647 
L 253.910986 69.342775 
L 254.788021 68.984365 
L 255.582194 68.9765 
L 256.496273 68.608482 
L 256.514795 68.544712 
L 257.831159 68.250839 
L 258.048549 68.389056 
L 258.07422 68.570314 
L 258.447585 68.418032 
L 258.469032 68.538792 
L 258.551244 68.473413 
L 258.599336 68.533079 
L 259.825689 68.214567 
L 259.930648 68.180466 
L 260.132115 68.047835 
L 260.146738 67.983039 
L 260.496382 67.788217 
L 260.560397 67.722103 
L 260.720596 67.79923 
L 260.748217 67.910929 
L 260.775512 67.779862 
L 261.695115 67.534464 
L 261.738008 67.593385 
L 262.798314 67.19973 
L 263.251616 67.278301 
L 263.281186 67.388681 
L 264.602425 67.354564 
L 264.689836 67.30711 
L 265.510004 67.552033 
L 265.592541 67.600038 
L 266.514419 67.486451 
L 266.97227 67.591196 
L 267.063906 67.530022 
L 267.684556 67.555686 
L 267.685531 67.66408 
L 267.930542 67.630523 
L 268.408215 67.415771 
L 268.545993 67.307641 
L 269.054862 67.059313 
L 269.53676 67.154343 
L 270.544098 66.931085 
L 271.037694 66.927908 
L 271.750955 67.012704 
L 273.792928 66.308497 
L 273.933956 66.248169 
L 274.352164 66.264798 
L 274.372635 66.204677 
L 274.526011 66.260929 
L 275.81443 66.164098 
L 275.976254 66.220128 
L 277.002764 66.011642 
L 277.013488 66.090736 
L 277.270846 66.230419 
L 277.292293 66.17153 
L 278.08939 66.077813 
L 278.471854 66.188713 
L 278.935555 66.152061 
L 279.736552 65.970729 
L 279.740776 66.01648 
L 280.503754 65.863937 
L 280.786783 65.890358 
L 280.980777 65.774865 
L 282.843379 65.511974 
L 283.58816 65.635978 
L 283.638852 65.577957 
L 283.834471 65.604537 
L 284.02619 65.601298 
L 284.172416 65.655398 
L 284.732302 65.643003 
L 284.997134 65.654638 
L 285.248319 65.62511 
L 285.521925 65.695795 
L 285.551496 65.79632 
L 285.602512 65.744634 
L 285.847198 65.573261 
L 286.670941 65.451245 
L 286.67679 65.503637 
L 287.120669 65.474833 
L 288.320377 65.309114 
L 288.648575 65.391873 
L 289.595473 65.411377 
L 289.912947 65.535139 
L 290.165107 65.495205 
L 290.787382 65.217258 
L 291.781398 65.014405 
L 292.680854 64.882067 
L 293.162102 64.984429 
L 293.369744 64.971023 
L 293.393465 65.075387 
L 293.759356 65.019737 
L 294.010541 64.99358 
L 295.260291 64.907441 
L 295.444537 65.075247 
L 295.594988 65.223851 
L 295.697671 65.169927 
L 296.722557 65.107486 
L 297.057253 65.187145 
L 297.105996 65.133567 
L 297.307788 65.079062 
L 300.344427 65.118793 
L 300.601786 65.053533 
L 300.665151 65.131072 
L 301.459324 65.106974 
L 302.064052 65.056744 
L 302.193056 65.1767 
L 302.540426 65.071265 
L 302.804608 65.074098 
L 303.269284 65.063415 
L 303.341097 65.090343 
L 304.062807 65.063494 
L 304.44657 65.117488 
L 304.564526 65.114854 
L 305.364873 64.774239 
L 305.464307 64.721887 
L 305.472106 64.770488 
L 306.067086 65.064071 
L 306.435252 65.009874 
L 307.397098 65.151272 
L 308.535716 64.923192 
L 308.746932 64.921188 
L 308.787225 64.869836 
L 308.795024 64.909194 
L 308.998117 64.907165 
L 309.450119 64.873544 
L 310.503601 65.129006 
L 310.623506 65.155349 
L 311.429377 65.043479 
L 311.997386 65.043722 
L 312.356129 64.986777 
L 312.393498 65.01466 
L 312.423718 64.963649 
L 312.457838 64.918131 
L 312.513404 64.96662 
L 312.69375 64.964473 
L 313.707263 64.86922 
L 314.085502 64.84245 
L 314.414999 64.840354 
L 315.547768 64.907753 
L 315.581238 64.85752 
L 315.638753 64.895865 
L 315.676447 64.94388 
L 315.805452 64.94126 
L 315.883114 64.989286 
L 316.65909 64.842531 
L 317.705747 65.016645 
L 318.228589 64.946061 
L 318.429732 64.942414 
L 318.936975 64.819091 
L 319.174512 64.820074 
L 319.211556 64.771144 
L 319.733098 64.731538 
L 322.636833 64.425849 
L 323.145377 64.448276 
L 324.436395 64.493802 
L 324.496835 64.383122 
L 324.928041 64.521349 
L 324.931941 64.475883 
L 325.731962 64.377221 
L 326.062435 64.42324 
L 326.385433 64.207656 
L 327.770361 64.027702 
L 327.974428 64.048962 
L 328.037468 64.001311 
L 328.289953 63.994306 
L 328.415383 63.900386 
L 328.481672 63.946484 
L 329.49486 63.973586 
L 329.786013 63.950472 
L 331.314244 64.079959 
L 331.33764 64.170014 
L 331.882253 64.033099 
L 332.031079 64.102641 
L 332.908113 63.950603 
L 333.027694 63.986887 
L 336.723653 63.582771 
L 338.402659 63.515584 
L 339.348907 63.362421 
L 339.368729 63.385539 
L 341.128322 63.132022 
L 342.254267 63.261185 
L 342.353701 63.312959 
L 342.666301 63.261675 
L 343.196291 63.28841 
L 344.525328 63.071124 
L 345.276283 63.29889 
L 345.391965 63.412618 
L 345.442982 63.368831 
L 346.098402 63.371587 
L 346.33009 63.372198 
L 346.540006 63.371627 
L 347.087543 63.308857 
L 347.560667 63.315262 
L 347.935982 63.265742 
L 347.938907 63.308698 
L 348.009096 63.265236 
L 348.735679 63.401597 
L 349.438217 63.301524 
L 349.471362 63.322905 
L 350.096886 63.259184 
L 350.202819 63.300306 
L 350.953774 63.29723 
L 351.229655 63.297637 
L 351.365483 63.300274 
L 351.855505 63.207309 
L 352.504751 63.169575 
L 353.363913 63.250836 
L 353.608599 63.041122 
L 353.781147 63.042115 
L 353.982614 62.957523 
L 354.626986 63.089743 
L 355.196295 63.032025 
L 355.226515 63.108956 
L 355.250236 63.024729 
L 355.460478 62.941462 
L 355.692815 62.941897 
L 355.957973 62.936355 
L 356.91202 62.753739 
L 356.925668 62.836628 
L 357.138184 62.836528 
L 357.785805 62.634252 
L 357.791979 62.593012 
L 357.842021 62.710338 
L 358.204338 62.74627 
L 358.702809 62.714292 
L 359.015084 62.704511 
L 359.520378 62.707087 
L 360.650872 62.897296 
L 360.679792 62.919291 
L 360.841941 62.911582 
L 361.573074 62.927118 
L 361.619542 62.808888 
L 362.234343 62.833172 
L 363.247531 62.918503 
L 363.248181 62.879156 
L 363.366787 62.837534 
L 363.735603 62.820262 
L 363.811316 62.782038 
L 363.839911 62.856018 
L 364.0664 62.880072 
L 364.677302 62.763046 
L 364.764063 62.747692 
L 364.770237 62.708426 
L 365.087061 62.7423 
L 365.288204 62.70192 
L 365.296978 62.735281 
L 365.359043 62.695403 
L 365.832167 62.610217 
L 366.074578 62.649988 
L 367.942054 62.349551 
L 368.243281 62.332351 
L 368.267652 62.293345 
L 368.721604 62.302688 
L 368.858408 62.364486 
L 369.257769 62.169743 
L 369.264917 62.130764 
L 369.949908 62.021117 
L 370.089635 62.05427 
L 370.547162 62.073097 
L 370.953672 62.047634 
L 371.15579 62.010877 
L 371.821608 62.158909 
L 373.735877 61.988598 
L 373.878204 62.122798 
L 374.468634 62.006504 
L 376.819633 61.764925 
L 377.715514 61.901012 
L 377.896835 61.827806 
L 378.767046 61.675092 
L 378.894751 61.750786 
L 379.359101 61.738355 
L 379.418242 61.844214 
L 379.868945 61.902087 
L 380.228012 61.794618 
L 380.357342 61.942068 
L 380.479197 61.942573 
L 380.643296 61.973302 
L 380.957195 61.967693 
L 381.375079 61.890152 
L 385.880157 61.373038 
L 386.096898 61.447942 
L 386.444267 61.504423 
L 387.998168 61.533373 
L 388.026764 61.600605 
L 389.147834 61.617759 
L 389.245318 61.602191 
L 389.284637 61.638784 
L 389.951105 61.581809 
L 389.993674 61.618302 
L 391.042281 61.572088 
L 391.189157 61.672447 
L 391.836129 61.64548 
L 391.972607 61.70602 
L 393.350061 61.562423 
L 393.898898 61.598832 
L 394.215398 61.61811 
L 394.215398 61.61811 
" style="fill:none;stroke:#8000ff;stroke-linecap:square;stroke-width:1.5;"/>
   </g>
   <g id="line2d_17">
    <path clip-path="url(#p6f3ca56857)" d="M 70.995173 276.334125 
L 75.38197 276.334125 
L 76.844236 275.811179 
L 78.306502 275.657902 
L 79.768768 273.57771 
L 81.231034 271.018258 
L 81.713582 258.425059 
L 83.175847 248.750222 
L 83.413059 252.248551 
L 83.721435 253.626681 
L 84.100974 254.318991 
L 84.59912 254.747358 
L 85.310756 255.047214 
L 85.761783 255.160946 
L 85.911584 254.696916 
L 86.006469 254.729728 
L 86.511763 254.793612 
L 86.667088 254.675006 
L 87.076848 254.710878 
L 87.232498 254.611737 
L 87.333882 254.570631 
L 88.467625 252.331222 
L 89.027186 251.685854 
L 89.289094 250.717127 
L 89.414849 250.209607 
L 90.629179 248.985492 
L 92.091445 248.364734 
L 93.553711 247.587956 
L 99.425521 245.304276 
L 102.374424 244.305749 
L 102.770535 243.853435 
L 111.54413 240.561435 
L 117.393194 238.476912 
L 121.779992 237.055074 
L 121.982434 235.921556 
L 123.4447 235.442505 
L 124.042279 234.036656 
L 124.937511 229.686712 
L 125.396663 228.641535 
L 126.169064 226.025376 
L 126.255825 225.768012 
L 126.653561 223.721371 
L 127.302807 221.304308 
L 127.88024 218.354197 
L 128.542484 215.477816 
L 129.056877 213.602073 
L 130.230589 208.110397 
L 130.555537 207.78353 
L 131.047508 206.022923 
L 131.855004 202.56356 
L 132.477929 200.03451 
L 133.892102 194.531068 
L 134.165384 193.557048 
L 134.276841 193.390492 
L 135.039494 190.295984 
L 136.940114 183.498081 
L 137.068469 183.362928 
L 137.830472 181.122386 
L 139.029855 177.909917 
L 139.493231 176.470511 
L 139.951407 175.157735 
L 140.467425 173.677545 
L 141.061105 171.971193 
L 141.809135 170.005648 
L 141.929041 169.843756 
L 143.08683 166.205439 
L 143.355887 166.143066 
L 143.565479 165.552094 
L 144.069148 164.983149 
L 147.497024 155.485692 
L 149.983526 148.799253 
L 152.182124 143.500421 
L 152.357921 143.032377 
L 152.48725 143.020102 
L 153.23658 141.179386 
L 154.619884 138.051311 
L 155.17392 136.742118 
L 155.292526 136.746664 
L 156.505557 134.198142 
L 157.57626 131.716219 
L 158.831534 129.385228 
L 158.994658 129.328648 
L 160.656442 126.214603 
L 161.059378 125.462952 
L 161.143864 125.54499 
L 161.495783 124.799063 
L 161.560772 125.003725 
L 162.312702 123.536102 
L 162.437807 123.519068 
L 162.921979 122.839953 
L 163.468217 121.77014 
L 164.930483 121.853448 
L 165.53911 120.802678 
L 167.001376 120.816043 
L 167.795549 119.438673 
L 168.69403 118.143916 
L 168.777867 118.236386 
L 168.972836 117.902644 
L 169.057647 117.995559 
L 169.251641 117.663728 
L 169.369597 117.71561 
L 169.616233 117.38825 
L 169.702344 117.481214 
L 169.896988 117.153343 
L 170.449724 116.509302 
L 170.813016 115.862025 
L 170.912125 115.923808 
L 170.996937 116.018864 
L 171.210102 115.699727 
L 171.323509 115.759948 
L 171.853824 114.807205 
L 171.989003 114.863033 
L 172.368217 114.236685 
L 172.4761 114.293718 
L 173.623491 112.543824 
L 173.822034 112.740707 
L 175.105579 111.003725 
L 175.314195 110.71033 
L 175.47342 111.353005 
L 175.932571 111.766156 
L 176.348505 111.187806 
L 176.447614 111.241864 
L 176.632184 110.953845 
L 176.716346 111.051417 
L 177.147877 110.4821 
L 177.282405 110.85388 
L 177.646022 110.286866 
L 177.9427 110.503032 
L 178.088601 110.556069 
L 178.279346 110.276205 
L 178.404776 110.366954 
L 179.12941 109.257897 
L 179.238917 109.319202 
L 180.551382 107.42262 
L 180.87503 107.637477 
L 181.035879 107.370577 
L 182.12283 107.141619 
L 182.346719 106.879119 
L 182.454277 106.937369 
L 183.399551 105.634207 
L 183.773241 105.119373 
L 183.893147 105.220451 
L 184.078042 104.964633 
L 184.200873 105.030427 
L 184.461481 104.778821 
L 184.647026 104.950385 
L 185.08928 104.448005 
L 185.174417 104.548463 
L 185.337866 104.296655 
L 185.554606 104.439169 
L 186.27729 103.445989 
L 186.446913 103.513467 
L 187.711935 101.810793 
L 187.798697 101.913713 
L 189.182 100.257943 
L 190.158469 99.098899 
L 190.919172 98.185002 
L 191.171657 98.331138 
L 192.206291 96.982375 
L 192.714509 96.544615 
L 193.639961 95.450531 
L 193.736146 95.552762 
L 193.912268 95.335972 
L 194.005528 95.443122 
L 195.268925 94.239135 
L 195.39728 94.320406 
L 196.004608 93.69127 
L 196.174556 93.481776 
L 196.278214 93.563465 
L 196.869619 92.942401 
L 196.978152 93.019929 
L 197.906528 91.99698 
L 200.047285 89.805718 
L 200.155168 89.891146 
L 200.750473 89.307354 
L 200.968838 89.479029 
L 202.909102 87.573216 
L 203.834229 86.640344 
L 203.938862 86.723137 
L 204.127332 86.538512 
L 204.363569 86.698809 
L 204.756431 86.33234 
L 204.915006 86.409844 
L 205.088203 86.226838 
L 205.184713 86.314301 
L 205.39268 86.13309 
L 205.741024 86.325852 
L 206.788006 85.508443 
L 209.913356 83.006376 
L 210.665935 82.326793 
L 211.980025 81.327445 
L 214.437282 79.290948 
L 214.535091 79.399053 
L 215.153142 78.922666 
L 215.263299 79.009175 
L 217.272453 77.802882 
L 217.370587 77.915006 
L 217.554182 77.760556 
L 217.646793 77.868344 
L 218.00456 77.560542 
L 218.207653 77.758377 
L 218.824404 77.302524 
L 218.950484 77.383846 
L 219.646522 77.012139 
L 219.761554 77.093347 
L 221.675823 75.610282 
L 221.770382 75.70004 
L 222.318895 75.262146 
L 222.417029 75.352358 
L 222.773822 75.06222 
L 222.999336 75.234075 
L 223.18943 75.090044 
L 223.40747 75.25339 
L 224.514243 74.396949 
L 224.59678 74.503368 
L 224.795323 74.36234 
L 224.888583 74.472892 
L 225.176162 74.33471 
L 225.28502 74.445054 
L 227.151846 73.197714 
L 227.24998 73.287876 
L 227.513838 73.152607 
L 227.643492 73.242224 
L 228.3756 72.696028 
L 228.459761 72.806003 
L 228.647906 72.670476 
L 228.745716 72.759541 
L 229.281555 72.354363 
L 229.380664 72.463723 
L 230.706452 71.532088 
L 230.798737 71.621348 
L 231.877239 71.052625 
L 232.010793 71.138325 
L 232.520636 70.747625 
L 232.733477 70.918691 
L 233.091245 71.026042 
L 233.460386 70.768159 
L 233.545197 70.876312 
L 233.705721 70.747236 
L 233.812304 70.83221 
L 234.175596 70.576184 
L 234.279255 70.664923 
L 235.102023 70.159162 
L 235.323313 70.265866 
L 235.346709 70.485324 
L 235.558575 70.359704 
L 235.644361 70.466397 
L 236.692318 69.92351 
L 236.810924 70.003616 
L 237.02344 69.879894 
L 237.107602 69.986166 
L 238.076272 69.36959 
L 238.596513 69.001539 
L 238.708296 69.081867 
L 240.452941 68.075882 
L 240.637837 68.268523 
L 241.358896 67.79292 
L 241.492125 68.085834 
L 242.171916 67.834854 
L 242.966089 67.368301 
L 243.325481 67.135678 
L 243.412567 67.23718 
L 244.890431 66.488372 
L 245.012611 66.568435 
L 245.36193 66.340411 
L 245.458765 66.441348 
L 246.837844 65.731785 
L 249.328245 64.491573 
L 249.443602 64.574575 
L 249.627197 64.465857 
L 250.047355 64.502824 
L 250.799285 64.071919 
L 250.889945 64.171682 
L 252.155942 63.618594 
L 252.180639 63.822325 
L 252.554654 63.610765 
L 252.76327 63.774985 
L 253.479781 63.354006 
L 253.710819 63.501008 
L 254.041941 63.291359 
L 254.152423 63.373266 
L 255.909092 62.340497 
L 256.028672 62.422239 
L 256.393264 62.218581 
L 256.506346 62.296891 
L 256.695141 62.195544 
L 256.787751 62.280376 
L 257.525383 61.876725 
L 257.654387 61.958015 
L 259.119578 61.160464 
L 260.345281 60.573489 
L 260.663405 60.83997 
L 261.207043 60.547708 
L 261.592432 60.809856 
L 262.306667 60.617538 
L 262.399602 60.714038 
L 263.303933 60.427264 
L 263.441711 60.504234 
L 266.845216 58.910193 
L 267.13182 59.070377 
L 270.010209 57.785529 
L 270.434591 58.058837 
L 271.715536 57.434111 
L 271.828618 57.513552 
L 272.248126 57.337676 
L 272.358608 57.417012 
L 272.704353 57.240316 
L 272.818409 57.316816 
L 273.156355 57.140642 
L 273.273986 57.21938 
L 275.014083 56.439168 
L 275.890467 56.098638 
L 276.053266 56.01277 
L 276.284629 56.161507 
L 277.198383 55.916461 
L 277.307566 55.991981 
L 278.644726 55.403706 
L 278.826372 55.320092 
L 279.048637 55.461653 
L 280.493031 54.959824 
L 280.645756 55.005157 
L 281.254709 54.759784 
L 281.396711 54.840445 
L 282.272446 54.431726 
L 282.385852 54.509701 
L 282.558725 54.428355 
L 282.65296 54.523402 
L 282.84078 54.442475 
L 282.959711 54.517117 
L 283.141681 54.436226 
L 283.257038 54.527968 
L 283.820823 54.286471 
L 283.913108 54.378154 
L 284.932145 53.979954 
L 284.956191 54.157859 
L 285.488131 53.918848 
L 285.589515 54.012131 
L 287.723123 53.221652 
L 289.082055 52.833786 
L 290.185904 52.37398 
L 290.492979 52.634199 
L 292.482311 51.971855 
L 292.571022 52.06154 
L 293.08184 51.83634 
L 293.17445 51.925634 
L 293.354146 51.85098 
L 293.463979 51.929274 
L 293.98487 51.70572 
L 294.070982 51.797702 
L 294.750773 51.501052 
L 294.774169 51.672102 
L 295.379547 51.539699 
L 297.552149 50.832063 
L 297.637286 50.92042 
L 298.002852 50.776438 
L 298.20107 50.952195 
L 299.203535 50.595747 
L 299.383881 50.773667 
L 299.555453 50.702188 
L 299.785842 50.852556 
L 300.336303 50.639419 
L 300.530297 50.815454 
L 303.226391 50.067822 
L 303.313152 50.154146 
L 307.10367 48.859389 
L 307.201154 48.932386 
L 307.894918 48.783511 
L 309.78774 48.190107 
L 309.910895 48.262879 
L 310.243967 48.130429 
L 310.340152 48.215806 
L 310.962427 48.019923 
L 311.075834 48.265974 
L 311.709807 48.141446 
L 311.795594 48.22597 
L 314.294444 47.454493 
L 314.404601 47.523754 
L 314.427997 47.682454 
L 315.875965 47.305935 
L 316.077108 47.458545 
L 316.645442 47.268809 
L 316.668514 47.426141 
L 319.947564 46.450399 
L 320.033675 46.533282 
L 322.550722 45.809481 
L 323.934025 46.007827 
L 324.040283 46.077756 
L 330.243215 44.343035 
L 330.328352 44.426082 
L 330.896036 44.253485 
L 330.980197 44.336744 
L 331.18199 44.279548 
L 331.259327 44.394902 
L 331.444548 44.337491 
L 331.871854 44.349386 
L 332.304035 44.303325 
L 335.228242 43.526241 
L 335.328651 43.605971 
L 336.042237 43.382277 
L 336.476692 43.474968 
L 337.892815 43.147256 
L 338.154074 43.283471 
L 348.934223 40.489254 
L 349.093122 40.556513 
L 350.505671 40.267484 
L 350.623302 40.334489 
L 354.466137 39.4006 
L 354.578244 39.47992 
L 355.618402 39.277467 
L 355.722711 39.354366 
L 356.576999 39.202328 
L 356.660186 39.278823 
L 357.57134 39.034967 
L 357.663625 39.113515 
L 359.212977 38.79222 
L 359.442065 38.934349 
L 361.060306 38.629591 
L 361.302392 38.76187 
L 364.962931 37.944302 
L 365.065615 38.009335 
L 365.466601 37.916675 
L 365.68984 38.059798 
L 366.362157 37.873301 
L 366.445669 37.949919 
L 367.041623 37.874604 
L 367.121886 37.949065 
L 367.9713 37.828975 
L 368.079832 37.904914 
L 371.795287 37.090618 
L 372.126734 37.088012 
L 373.999734 36.642606 
L 374.111841 36.717801 
L 377.388617 36.037544 
L 377.490975 36.100879 
L 379.793882 35.67034 
L 379.909888 35.733351 
L 380.754753 35.563531 
L 380.938998 35.710038 
L 381.905069 35.497555 
L 382.029199 35.569526 
L 383.201286 35.389129 
L 383.225007 35.518641 
L 384.11114 35.422072 
L 384.215449 35.482284 
L 386.057254 35.177909 
L 386.256122 35.322177 
L 388.120674 35.021132 
L 388.216858 35.093956 
L 390.616274 34.686248 
L 390.70401 34.75812 
L 391.904043 34.586269 
L 391.999253 34.656567 
L 393.227556 34.484105 
L 393.329265 34.543073 
L 393.693531 34.462454 
L 393.693531 34.462454 
" style="fill:none;stroke:#80ffb4;stroke-linecap:square;stroke-width:1.5;"/>
   </g>
   <g id="line2d_18">
    <path clip-path="url(#p6f3ca56857)" d="M 70.995173 253.763291 
L 72.457439 253.853455 
L 73.919704 243.825312 
L 75.38197 246.392456 
L 75.495702 248.521809 
L 76.957968 249.50058 
L 78.420234 250.156767 
L 79.8825 250.630123 
L 79.937091 251.212009 
L 81.399357 243.689066 
L 81.480919 244.766105 
L 83.194044 235.716797 
L 84.651436 229.226043 
L 84.695954 230.731624 
L 85.398167 225.376937 
L 85.649351 221.415947 
L 86.803242 213.363888 
L 86.977414 210.759993 
L 87.021282 212.780577 
L 87.574668 209.561507 
L 87.944784 206.617129 
L 88.798097 204.576807 
L 88.827992 206.689729 
L 90.290258 203.093932 
L 90.392942 203.279738 
L 90.421537 205.198646 
L 91.537734 203.007675 
L 91.569903 204.782679 
L 91.768122 203.261282 
L 91.818489 206.484121 
L 92.416718 203.244468 
L 92.604863 201.526288 
L 94.067129 199.150436 
L 94.230902 198.056722 
L 94.883723 197.02449 
L 95.251564 194.398576 
L 95.523221 194.70016 
L 96.985486 192.833516 
L 97.014082 194.244949 
L 98.476348 192.513788 
L 98.519241 193.603391 
L 98.86856 191.875819 
L 99.161663 191.193094 
L 100.623929 189.682066 
L 100.693143 191.719159 
L 102.155409 190.324634 
L 102.417967 189.499394 
L 105.772729 186.337344 
L 105.973222 185.854674 
L 107.810153 184.292857 
L 107.885541 187.655413 
L 108.264755 187.197481 
L 108.288152 188.239296 
L 108.761926 186.719828 
L 108.787272 187.710222 
L 108.945197 187.106504 
L 108.972167 188.064434 
L 109.131392 187.689372 
L 109.182084 189.51065 
L 110.64435 188.497059 
L 110.932253 188.098782 
L 110.964423 188.937937 
L 111.098627 188.574978 
L 112.560893 187.63954 
L 112.693471 187.273002 
L 114.155737 186.381389 
L 114.179459 187.220015 
L 114.340633 186.715565 
L 114.425444 188.963992 
L 114.579794 188.609511 
L 114.607415 189.365214 
L 114.711723 189.015154 
L 116.173989 188.186633 
L 116.198685 188.92425 
L 116.858979 187.220433 
L 118.321245 186.486886 
L 118.373887 187.875091 
L 118.504516 187.575232 
L 118.535711 188.124837 
L 119.997977 187.414909 
L 120.085713 189.239673 
L 120.351845 188.944999 
L 121.814111 188.233629 
L 121.844981 188.741622 
L 122.162455 188.040607 
L 123.624721 187.393577 
L 123.683862 188.490995 
L 123.802143 188.225421 
L 123.833988 188.703608 
L 125.296254 188.051076 
L 125.440206 187.660738 
L 126.902471 187.032736 
L 127.055522 186.679428 
L 128.517788 186.077865 
L 129.212852 184.639197 
L 129.269717 185.663397 
L 130.731983 185.094921 
L 130.763503 185.549652 
L 130.927927 185.237242 
L 130.951648 185.777319 
L 131.411125 184.934742 
L 131.436471 185.460612 
L 131.757519 184.966201 
L 133.219785 184.456385 
L 133.37641 184.12796 
L 133.400131 184.640597 
L 134.862397 184.147774 
L 134.914064 185.157777 
L 135.302052 184.989913 
L 135.336171 185.394777 
L 135.471999 185.205975 
L 135.536989 185.996571 
L 135.736832 185.717369 
L 137.199098 185.246135 
L 137.229643 185.633612 
L 137.367746 185.451681 
L 137.392442 185.913287 
L 137.803501 185.18615 
L 139.265767 184.726867 
L 139.317759 185.633432 
L 139.610537 185.475062 
L 139.870495 185.035621 
L 140.090485 184.868714 
L 140.113231 185.300898 
L 140.239961 185.056265 
L 141.702227 184.62864 
L 141.726923 185.054498 
L 143.189189 184.630364 
L 143.212585 185.053128 
L 143.312994 184.913675 
L 143.482292 184.679714 
L 143.506013 185.093769 
L 143.765971 184.70439 
L 144.202052 184.251456 
L 145.664318 183.85818 
L 145.761802 183.711784 
L 147.224068 183.321048 
L 147.493775 182.859216 
L 148.956041 182.487201 
L 148.98951 182.821671 
L 150.451776 182.451127 
L 150.92555 181.755094 
L 151.178685 181.419254 
L 151.225477 181.74562 
L 152.839169 181.272302 
L 152.979221 181.152393 
L 153.003917 181.536624 
L 154.585114 181.068325 
L 154.92436 180.951414 
L 154.962704 181.267011 
L 155.085859 181.150426 
L 158.010391 180.480764 
L 158.034437 180.852717 
L 159.496703 180.52226 
L 159.63773 180.34867 
L 159.667301 180.655885 
L 162.718237 179.911071 
L 163.064632 179.639666 
L 164.526898 179.338742 
L 164.57369 180.05382 
L 165.031542 179.074104 
L 165.279477 178.082378 
L 165.434152 177.98794 
L 171.704673 176.669274 
L 171.812231 176.598318 
L 173.274497 176.317745 
L 173.296593 176.6696 
L 173.583198 176.585546 
L 178.081127 175.61922 
L 178.196484 175.54293 
L 181.215251 174.940293 
L 181.595115 174.262023 
L 181.699748 174.192475 
L 183.279645 173.875542 
L 183.334561 174.503357 
L 183.915893 174.286995 
L 185.491241 173.976535 
L 185.777195 173.715437 
L 185.801891 174.045363 
L 187.264157 173.807508 
L 187.580981 172.980999 
L 187.606652 173.310628 
L 189.068918 173.075408 
L 189.209946 172.940013 
L 191.209026 171.876803 
L 192.845788 171.5536 
L 193.61494 170.675412 
L 196.890091 170.127472 
L 197.310899 169.869232 
L 201.840348 169.157068 
L 202.352466 168.935099 
L 202.430779 169.068572 
L 202.693337 168.98865 
L 202.763851 169.123386 
L 205.79919 168.629031 
L 206.042901 168.552262 
L 206.066622 168.853974 
L 206.543645 168.7579 
L 206.780857 168.251118 
L 207.188017 166.865717 
L 208.815357 166.611792 
L 208.839728 166.912114 
L 208.936887 166.881738 
L 210.653587 166.602335 
L 210.927518 165.938393 
L 211.208273 165.911424 
L 211.567991 165.239448 
L 211.598211 165.494906 
L 211.853295 164.844018 
L 212.370287 164.775293 
L 212.400183 165.028145 
L 212.772898 164.325459 
L 212.796944 164.616735 
L 214.386265 164.431228 
L 214.460028 164.56556 
L 215.922294 164.401993 
L 217.303323 163.855157 
L 217.564581 163.236148 
L 219.421009 163.044026 
L 219.772277 162.60727 
L 221.474355 162.326195 
L 221.69207 162.269516 
L 221.923108 161.673826 
L 223.385374 161.523562 
L 223.623236 160.934105 
L 225.179087 160.583686 
L 225.209632 160.830308 
L 225.47024 160.609583 
L 225.815985 160.603301 
L 226.263113 160.032118 
L 226.489927 160.028335 
L 229.84274 159.75085 
L 230.084176 159.881632 
L 230.136493 160.388108 
L 230.28142 160.343944 
L 230.49556 159.794327 
L 230.519607 160.063023 
L 230.925792 159.671096 
L 231.076567 159.621205 
L 231.266012 159.079702 
L 231.288109 159.346252 
L 232.087806 159.249837 
L 232.37246 158.717736 
L 232.402355 158.945927 
L 232.700982 158.769114 
L 234.74718 158.489724 
L 234.87131 158.452889 
L 235.424371 157.799896 
L 236.024875 156.800422 
L 237.487141 156.688611 
L 237.818913 156.155914 
L 238.05775 156.163861 
L 240.063978 155.994322 
L 241.061244 155.519767 
L 241.683194 154.295075 
L 242.017891 154.289868 
L 242.541057 154.252107 
L 244.198941 154.175375 
L 244.400084 153.714536 
L 244.865085 153.720497 
L 247.062708 153.526709 
L 247.385381 153.05491 
L 247.490989 153.074186 
L 247.514061 153.314708 
L 247.746398 153.335428 
L 249.563183 153.284264 
L 249.739304 152.847538 
L 250.282292 152.431044 
L 250.411622 152.651529 
L 250.67288 152.224422 
L 251.38874 152.265411 
L 251.510596 152.50984 
L 251.867714 152.473295 
L 252.221582 152.069308 
L 252.350261 152.046811 
L 252.947516 151.827019 
L 253.510651 151.010201 
L 253.698146 151.046937 
L 255.160411 150.960747 
L 255.389175 150.55528 
L 256.536891 150.194764 
L 256.776703 149.97105 
L 256.987919 149.569526 
L 257.530257 149.629153 
L 258.992523 149.549535 
L 259.204064 149.153228 
L 259.419829 149.137124 
L 260.705974 147.56705 
L 260.919464 147.582231 
L 261.172924 147.200219 
L 262.155566 146.86967 
L 262.465892 146.479616 
L 262.722276 146.103981 
L 262.746322 146.330951 
L 263.233094 145.75422 
L 264.815266 145.678073 
L 265.175633 145.301587 
L 266.106609 144.964241 
L 267.003465 143.496069 
L 267.107449 143.524668 
L 267.311841 143.164015 
L 267.551328 143.19088 
L 268.079693 142.514344 
L 268.286035 142.271857 
L 269.748301 142.21143 
L 269.932871 141.858226 
L 270.042379 141.88949 
L 270.242872 141.651444 
L 270.267568 141.875837 
L 273.28471 141.790927 
L 273.733463 141.482008 
L 273.831272 141.488365 
L 274.011943 141.143243 
L 277.050207 141.038756 
L 277.788489 140.720391 
L 279.250754 140.673624 
L 279.930221 140.383836 
L 280.611312 139.41086 
L 282.275695 139.368078 
L 282.58797 139.198008 
L 282.873599 139.237679 
L 283.140382 139.015312 
L 283.951777 137.868679 
L 284.145121 137.91264 
L 284.323192 137.590573 
L 285.207376 137.29787 
L 285.393246 136.978418 
L 285.504703 137.016733 
L 286.009997 136.39838 
L 286.114955 136.414315 
L 286.852262 135.163461 
L 286.950072 135.204321 
L 287.415722 134.905906 
L 287.830681 134.292197 
L 288.010702 133.98592 
L 288.141331 134.246358 
L 288.295031 133.940787 
L 289.529509 133.677979 
L 289.971113 133.431467 
L 290.082245 133.450819 
L 290.193702 133.709134 
L 290.298011 133.728212 
L 290.592738 133.471735 
L 290.897865 133.223294 
L 291.113955 132.928264 
L 291.227362 132.971594 
L 293.203695 132.241691 
L 293.389241 131.949767 
L 293.413287 132.163994 
L 294.173665 131.007529 
L 295.323656 130.756506 
L 296.298175 129.644079 
L 296.980241 129.380739 
L 297.513155 128.540746 
L 298.975421 128.487646 
L 299.249677 128.265501 
L 299.990559 127.493554 
L 300.080244 127.54393 
L 300.376597 127.289829 
L 300.477656 127.313323 
L 300.811377 126.771391 
L 300.929983 126.796316 
L 301.938622 125.488505 
L 302.043255 125.514746 
L 303.384965 123.954958 
L 304.286696 122.670506 
L 304.408876 122.731087 
L 304.707504 122.508218 
L 305.367798 121.809449 
L 305.589737 121.897954 
L 306.593827 120.40938 
L 306.705609 120.472306 
L 306.72933 120.683342 
L 306.88173 120.437792 
L 307.576469 119.801184 
L 309.032886 119.355098 
L 309.620717 118.637969 
L 309.687656 118.772201 
L 310.407741 117.824763 
L 311.092731 117.240968 
L 311.783896 116.313222 
L 312.169284 116.089958 
L 312.407471 116.214845 
L 313.136329 115.304106 
L 313.369317 115.40668 
L 314.134569 114.509966 
L 315.803827 114.106624 
L 316.06346 113.920892 
L 316.15672 113.98977 
L 316.179142 114.19732 
L 317.001585 113.322494 
L 318.284155 113.139291 
L 318.446304 112.921386 
L 318.87426 112.712459 
L 320.361872 111.043778 
L 320.713791 110.838172 
L 320.968225 110.948504 
L 321.152471 110.738741 
L 321.601224 110.537711 
L 321.783845 110.329076 
L 322.867546 109.825608 
L 323.380314 109.629798 
L 323.56066 109.424417 
L 324.018837 109.627474 
L 324.771741 108.814923 
L 325.470704 108.421712 
L 325.987372 107.82006 
L 326.107927 107.871586 
L 327.033704 107.150424 
L 327.144186 107.197962 
L 328.733182 105.448067 
L 328.836515 105.518676 
L 330.095689 104.188594 
L 330.204546 104.242034 
L 331.198237 103.491403 
L 331.300921 103.567533 
L 332.908763 101.732129 
L 333.132003 101.857359 
L 333.83584 101.212507 
L 334.398325 100.679637 
L 334.848053 100.328765 
L 337.640981 97.620048 
L 337.737815 97.679377 
L 339.227702 96.172646 
L 339.319012 96.249014 
L 339.79961 95.754139 
L 339.963384 95.768198 
L 341.543931 94.368828 
L 341.642715 94.430313 
L 344.581869 91.842334 
L 344.778788 91.860517 
L 345.604156 91.097538 
L 345.721462 91.179534 
L 346.425624 91.041913 
L 346.897449 90.589114 
L 347.002407 90.652415 
L 348.7607 89.020967 
L 348.826015 89.164631 
L 349.626362 88.43682 
L 349.72872 88.497861 
L 351.342737 87.068377 
L 351.435347 87.127202 
L 352.622707 86.147829 
L 353.079909 85.873719 
L 353.416555 85.597908 
L 353.558882 85.622005 
L 354.032006 85.210219 
L 354.194155 85.234708 
L 359.709497 80.892005 
L 362.273987 78.893247 
L 364.394272 77.319296 
L 365.150751 77.090663 
L 372.128034 72.194885 
L 372.21772 72.280294 
L 377.05782 69.342632 
L 377.149455 69.412368 
L 377.92933 68.899666 
L 378.161993 68.972344 
L 384.579715 64.948597 
L 384.663552 65.037606 
L 385.295251 64.66146 
L 385.402484 64.732351 
L 389.934208 62.085594 
L 393.111225 60.339944 
L 394.04805 59.827863 
L 394.04805 59.827863 
" style="fill:none;stroke:#ff0000;stroke-linecap:square;stroke-width:1.5;"/>
   </g>
   <g id="patch_3">
    <path d="M 53.328125 288.430125 
L 53.328125 22.318125 
" style="fill:none;stroke:#000000;stroke-linecap:square;stroke-linejoin:miter;stroke-width:0.8;"/>
   </g>
   <g id="patch_4">
    <path d="M 410.448125 288.430125 
L 410.448125 22.318125 
" style="fill:none;stroke:#000000;stroke-linecap:square;stroke-linejoin:miter;stroke-width:0.8;"/>
   </g>
   <g id="patch_5">
    <path d="M 53.328125 288.430125 
L 410.448125 288.430125 
" style="fill:none;stroke:#000000;stroke-linecap:square;stroke-linejoin:miter;stroke-width:0.8;"/>
   </g>
   <g id="patch_6">
    <path d="M 53.328125 22.318125 
L 410.448125 22.318125 
" style="fill:none;stroke:#000000;stroke-linecap:square;stroke-linejoin:miter;stroke-width:0.8;"/>
   </g>
   <g id="text_18">
    <!-- JERK .9 vs Rainbow DQN vs PPO2: Mean Reward vs Timesteps -->
    <defs>
     <path d="M 9.8125 72.90625 
L 19.671875 72.90625 
L 19.671875 5.078125 
Q 19.671875 -8.109375 14.671875 -14.0625 
Q 9.671875 -20.015625 -1.421875 -20.015625 
L -5.171875 -20.015625 
L -5.171875 -11.71875 
L -2.09375 -11.71875 
Q 4.4375 -11.71875 7.125 -8.046875 
Q 9.8125 -4.390625 9.8125 5.078125 
z
" id="DejaVuSans-4a"/>
     <path d="M 9.8125 72.90625 
L 55.90625 72.90625 
L 55.90625 64.59375 
L 19.671875 64.59375 
L 19.671875 43.015625 
L 54.390625 43.015625 
L 54.390625 34.71875 
L 19.671875 34.71875 
L 19.671875 8.296875 
L 56.78125 8.296875 
L 56.78125 0 
L 9.8125 0 
z
" id="DejaVuSans-45"/>
     <path d="M 9.8125 72.90625 
L 19.671875 72.90625 
L 19.671875 42.09375 
L 52.390625 72.90625 
L 65.09375 72.90625 
L 28.90625 38.921875 
L 67.671875 0 
L 54.6875 0 
L 19.671875 35.109375 
L 19.671875 0 
L 9.8125 0 
z
" id="DejaVuSans-4b"/>
     <path d="M 10.6875 12.40625 
L 21 12.40625 
L 21 0 
L 10.6875 0 
z
" id="DejaVuSans-2e"/>
     <path d="M 10.984375 1.515625 
L 10.984375 10.5 
Q 14.703125 8.734375 18.5 7.8125 
Q 22.3125 6.890625 25.984375 6.890625 
Q 35.75 6.890625 40.890625 13.453125 
Q 46.046875 20.015625 46.78125 33.40625 
Q 43.953125 29.203125 39.59375 26.953125 
Q 35.25 24.703125 29.984375 24.703125 
Q 19.046875 24.703125 12.671875 31.3125 
Q 6.296875 37.9375 6.296875 49.421875 
Q 6.296875 60.640625 12.9375 67.421875 
Q 19.578125 74.21875 30.609375 74.21875 
Q 43.265625 74.21875 49.921875 64.515625 
Q 56.59375 54.828125 56.59375 36.375 
Q 56.59375 19.140625 48.40625 8.859375 
Q 40.234375 -1.421875 26.421875 -1.421875 
Q 22.703125 -1.421875 18.890625 -0.6875 
Q 15.09375 0.046875 10.984375 1.515625 
z
M 30.609375 32.421875 
Q 37.25 32.421875 41.125 36.953125 
Q 45.015625 41.5 45.015625 49.421875 
Q 45.015625 57.28125 41.125 61.84375 
Q 37.25 66.40625 30.609375 66.40625 
Q 23.96875 66.40625 20.09375 61.84375 
Q 16.21875 57.28125 16.21875 49.421875 
Q 16.21875 41.5 20.09375 36.953125 
Q 23.96875 32.421875 30.609375 32.421875 
z
" id="DejaVuSans-39"/>
     <path d="M 2.984375 54.6875 
L 12.5 54.6875 
L 29.59375 8.796875 
L 46.6875 54.6875 
L 56.203125 54.6875 
L 35.6875 0 
L 23.484375 0 
z
" id="DejaVuSans-76"/>
     <path d="M 48.6875 27.296875 
Q 48.6875 37.203125 44.609375 42.84375 
Q 40.53125 48.484375 33.40625 48.484375 
Q 26.265625 48.484375 22.1875 42.84375 
Q 18.109375 37.203125 18.109375 27.296875 
Q 18.109375 17.390625 22.1875 11.75 
Q 26.265625 6.109375 33.40625 6.109375 
Q 40.53125 6.109375 44.609375 11.75 
Q 48.6875 17.390625 48.6875 27.296875 
z
M 18.109375 46.390625 
Q 20.953125 51.265625 25.265625 53.625 
Q 29.59375 56 35.59375 56 
Q 45.5625 56 51.78125 48.09375 
Q 58.015625 40.1875 58.015625 27.296875 
Q 58.015625 14.40625 51.78125 6.484375 
Q 45.5625 -1.421875 35.59375 -1.421875 
Q 29.59375 -1.421875 25.265625 0.953125 
Q 20.953125 3.328125 18.109375 8.203125 
L 18.109375 0 
L 9.078125 0 
L 9.078125 75.984375 
L 18.109375 75.984375 
z
" id="DejaVuSans-62"/>
     <path d="M 30.609375 48.390625 
Q 23.390625 48.390625 19.1875 42.75 
Q 14.984375 37.109375 14.984375 27.296875 
Q 14.984375 17.484375 19.15625 11.84375 
Q 23.34375 6.203125 30.609375 6.203125 
Q 37.796875 6.203125 41.984375 11.859375 
Q 46.1875 17.53125 46.1875 27.296875 
Q 46.1875 37.015625 41.984375 42.703125 
Q 37.796875 48.390625 30.609375 48.390625 
z
M 30.609375 56 
Q 42.328125 56 49.015625 48.375 
Q 55.71875 40.765625 55.71875 27.296875 
Q 55.71875 13.875 49.015625 6.21875 
Q 42.328125 -1.421875 30.609375 -1.421875 
Q 18.84375 -1.421875 12.171875 6.21875 
Q 5.515625 13.875 5.515625 27.296875 
Q 5.515625 40.765625 12.171875 48.375 
Q 18.84375 56 30.609375 56 
z
" id="DejaVuSans-6f"/>
     <path d="M 19.671875 64.796875 
L 19.671875 8.109375 
L 31.59375 8.109375 
Q 46.6875 8.109375 53.6875 14.9375 
Q 60.6875 21.78125 60.6875 36.53125 
Q 60.6875 51.171875 53.6875 57.984375 
Q 46.6875 64.796875 31.59375 64.796875 
z
M 9.8125 72.90625 
L 30.078125 72.90625 
Q 51.265625 72.90625 61.171875 64.09375 
Q 71.09375 55.28125 71.09375 36.53125 
Q 71.09375 17.671875 61.125 8.828125 
Q 51.171875 0 30.078125 0 
L 9.8125 0 
z
" id="DejaVuSans-44"/>
     <path d="M 39.40625 66.21875 
Q 28.65625 66.21875 22.328125 58.203125 
Q 16.015625 50.203125 16.015625 36.375 
Q 16.015625 22.609375 22.328125 14.59375 
Q 28.65625 6.59375 39.40625 6.59375 
Q 50.140625 6.59375 56.421875 14.59375 
Q 62.703125 22.609375 62.703125 36.375 
Q 62.703125 50.203125 56.421875 58.203125 
Q 50.140625 66.21875 39.40625 66.21875 
z
M 53.21875 1.3125 
L 66.21875 -12.890625 
L 54.296875 -12.890625 
L 43.5 -1.21875 
Q 41.890625 -1.3125 41.03125 -1.359375 
Q 40.1875 -1.421875 39.40625 -1.421875 
Q 24.03125 -1.421875 14.8125 8.859375 
Q 5.609375 19.140625 5.609375 36.375 
Q 5.609375 53.65625 14.8125 63.9375 
Q 24.03125 74.21875 39.40625 74.21875 
Q 54.734375 74.21875 63.90625 63.9375 
Q 73.09375 53.65625 73.09375 36.375 
Q 73.09375 23.6875 67.984375 14.640625 
Q 62.890625 5.609375 53.21875 1.3125 
z
" id="DejaVuSans-51"/>
     <path d="M 9.8125 72.90625 
L 23.09375 72.90625 
L 55.421875 11.921875 
L 55.421875 72.90625 
L 64.984375 72.90625 
L 64.984375 0 
L 51.703125 0 
L 19.390625 60.984375 
L 19.390625 0 
L 9.8125 0 
z
" id="DejaVuSans-4e"/>
     <path d="M 19.671875 64.796875 
L 19.671875 37.40625 
L 32.078125 37.40625 
Q 38.96875 37.40625 42.71875 40.96875 
Q 46.484375 44.53125 46.484375 51.125 
Q 46.484375 57.671875 42.71875 61.234375 
Q 38.96875 64.796875 32.078125 64.796875 
z
M 9.8125 72.90625 
L 32.078125 72.90625 
Q 44.34375 72.90625 50.609375 67.359375 
Q 56.890625 61.8125 56.890625 51.125 
Q 56.890625 40.328125 50.609375 34.8125 
Q 44.34375 29.296875 32.078125 29.296875 
L 19.671875 29.296875 
L 19.671875 0 
L 9.8125 0 
z
" id="DejaVuSans-50"/>
     <path d="M 39.40625 66.21875 
Q 28.65625 66.21875 22.328125 58.203125 
Q 16.015625 50.203125 16.015625 36.375 
Q 16.015625 22.609375 22.328125 14.59375 
Q 28.65625 6.59375 39.40625 6.59375 
Q 50.140625 6.59375 56.421875 14.59375 
Q 62.703125 22.609375 62.703125 36.375 
Q 62.703125 50.203125 56.421875 58.203125 
Q 50.140625 66.21875 39.40625 66.21875 
z
M 39.40625 74.21875 
Q 54.734375 74.21875 63.90625 63.9375 
Q 73.09375 53.65625 73.09375 36.375 
Q 73.09375 19.140625 63.90625 8.859375 
Q 54.734375 -1.421875 39.40625 -1.421875 
Q 24.03125 -1.421875 14.8125 8.828125 
Q 5.609375 19.09375 5.609375 36.375 
Q 5.609375 53.65625 14.8125 63.9375 
Q 24.03125 74.21875 39.40625 74.21875 
z
" id="DejaVuSans-4f"/>
     <path d="M 11.71875 12.40625 
L 22.015625 12.40625 
L 22.015625 0 
L 11.71875 0 
z
M 11.71875 51.703125 
L 22.015625 51.703125 
L 22.015625 39.3125 
L 11.71875 39.3125 
z
" id="DejaVuSans-3a"/>
    </defs>
    <g transform="translate(46.03625 16.318125)scale(0.12 -0.12)">
     <use xlink:href="#DejaVuSans-4a"/>
     <use x="29.492188" xlink:href="#DejaVuSans-45"/>
     <use x="92.675781" xlink:href="#DejaVuSans-52"/>
     <use x="162.158203" xlink:href="#DejaVuSans-4b"/>
     <use x="227.734375" xlink:href="#DejaVuSans-20"/>
     <use x="259.521484" xlink:href="#DejaVuSans-2e"/>
     <use x="291.308594" xlink:href="#DejaVuSans-39"/>
     <use x="354.931641" xlink:href="#DejaVuSans-20"/>
     <use x="386.71875" xlink:href="#DejaVuSans-76"/>
     <use x="445.898438" xlink:href="#DejaVuSans-73"/>
     <use x="497.998047" xlink:href="#DejaVuSans-20"/>
     <use x="529.785156" xlink:href="#DejaVuSans-52"/>
     <use x="599.236328" xlink:href="#DejaVuSans-61"/>
     <use x="660.515625" xlink:href="#DejaVuSans-69"/>
     <use x="688.298828" xlink:href="#DejaVuSans-6e"/>
     <use x="751.677734" xlink:href="#DejaVuSans-62"/>
     <use x="815.154297" xlink:href="#DejaVuSans-6f"/>
     <use x="876.335938" xlink:href="#DejaVuSans-77"/>
     <use x="958.123047" xlink:href="#DejaVuSans-20"/>
     <use x="989.910156" xlink:href="#DejaVuSans-44"/>
     <use x="1066.912109" xlink:href="#DejaVuSans-51"/>
     <use x="1145.623047" xlink:href="#DejaVuSans-4e"/>
     <use x="1220.427734" xlink:href="#DejaVuSans-20"/>
     <use x="1252.214844" xlink:href="#DejaVuSans-76"/>
     <use x="1311.394531" xlink:href="#DejaVuSans-73"/>
     <use x="1363.494141" xlink:href="#DejaVuSans-20"/>
     <use x="1395.28125" xlink:href="#DejaVuSans-50"/>
     <use x="1455.583984" xlink:href="#DejaVuSans-50"/>
     <use x="1515.886719" xlink:href="#DejaVuSans-4f"/>
     <use x="1594.597656" xlink:href="#DejaVuSans-32"/>
     <use x="1658.220703" xlink:href="#DejaVuSans-3a"/>
     <use x="1691.912109" xlink:href="#DejaVuSans-20"/>
     <use x="1723.699219" xlink:href="#DejaVuSans-4d"/>
     <use x="1809.978516" xlink:href="#DejaVuSans-65"/>
     <use x="1871.501953" xlink:href="#DejaVuSans-61"/>
     <use x="1932.78125" xlink:href="#DejaVuSans-6e"/>
     <use x="1996.160156" xlink:href="#DejaVuSans-20"/>
     <use x="2027.947266" xlink:href="#DejaVuSans-52"/>
     <use x="2097.367188" xlink:href="#DejaVuSans-65"/>
     <use x="2158.890625" xlink:href="#DejaVuSans-77"/>
     <use x="2240.677734" xlink:href="#DejaVuSans-61"/>
     <use x="2301.957031" xlink:href="#DejaVuSans-72"/>
     <use x="2343.054688" xlink:href="#DejaVuSans-64"/>
     <use x="2406.53125" xlink:href="#DejaVuSans-20"/>
     <use x="2438.318359" xlink:href="#DejaVuSans-76"/>
     <use x="2497.498047" xlink:href="#DejaVuSans-73"/>
     <use x="2549.597656" xlink:href="#DejaVuSans-20"/>
     <use x="2581.384766" xlink:href="#DejaVuSans-54"/>
     <use x="2642.421875" xlink:href="#DejaVuSans-69"/>
     <use x="2670.205078" xlink:href="#DejaVuSans-6d"/>
     <use x="2767.617188" xlink:href="#DejaVuSans-65"/>
     <use x="2829.140625" xlink:href="#DejaVuSans-73"/>
     <use x="2881.240234" xlink:href="#DejaVuSans-74"/>
     <use x="2920.449219" xlink:href="#DejaVuSans-65"/>
     <use x="2981.972656" xlink:href="#DejaVuSans-70"/>
     <use x="3045.449219" xlink:href="#DejaVuSans-73"/>
    </g>
   </g>
   <g id="legend_1">
    <g id="patch_7">
     <path d="M 434.5169 74.3525 
L 535.582525 74.3525 
Q 537.582525 74.3525 537.582525 72.3525 
L 537.582525 29.318125 
Q 537.582525 27.318125 535.582525 27.318125 
L 434.5169 27.318125 
Q 432.5169 27.318125 432.5169 29.318125 
L 432.5169 72.3525 
Q 432.5169 74.3525 434.5169 74.3525 
z
" style="fill:#ffffff;opacity:0.8;stroke:#cccccc;stroke-linejoin:miter;"/>
    </g>
    <g id="line2d_19">
     <path d="M 436.5169 35.416562 
L 456.5169 35.416562 
" style="fill:none;stroke:#8000ff;stroke-linecap:square;stroke-width:1.5;"/>
    </g>
    <g id="line2d_20"/>
    <g id="text_19">
     <!-- JERK .9 -->
     <g transform="translate(464.5169 38.916562)scale(0.1 -0.1)">
      <use xlink:href="#DejaVuSans-4a"/>
      <use x="29.492188" xlink:href="#DejaVuSans-45"/>
      <use x="92.675781" xlink:href="#DejaVuSans-52"/>
      <use x="162.158203" xlink:href="#DejaVuSans-4b"/>
      <use x="227.734375" xlink:href="#DejaVuSans-20"/>
      <use x="259.521484" xlink:href="#DejaVuSans-2e"/>
      <use x="291.308594" xlink:href="#DejaVuSans-39"/>
     </g>
    </g>
    <g id="line2d_21">
     <path d="M 436.5169 50.094688 
L 456.5169 50.094688 
" style="fill:none;stroke:#80ffb4;stroke-linecap:square;stroke-width:1.5;"/>
    </g>
    <g id="line2d_22"/>
    <g id="text_20">
     <!-- Rainbow DQN -->
     <g transform="translate(464.5169 53.594688)scale(0.1 -0.1)">
      <use xlink:href="#DejaVuSans-52"/>
      <use x="69.451172" xlink:href="#DejaVuSans-61"/>
      <use x="130.730469" xlink:href="#DejaVuSans-69"/>
      <use x="158.513672" xlink:href="#DejaVuSans-6e"/>
      <use x="221.892578" xlink:href="#DejaVuSans-62"/>
      <use x="285.369141" xlink:href="#DejaVuSans-6f"/>
      <use x="346.550781" xlink:href="#DejaVuSans-77"/>
      <use x="428.337891" xlink:href="#DejaVuSans-20"/>
      <use x="460.125" xlink:href="#DejaVuSans-44"/>
      <use x="537.126953" xlink:href="#DejaVuSans-51"/>
      <use x="615.837891" xlink:href="#DejaVuSans-4e"/>
     </g>
    </g>
    <g id="line2d_23">
     <path d="M 436.5169 64.772812 
L 456.5169 64.772812 
" style="fill:none;stroke:#ff0000;stroke-linecap:square;stroke-width:1.5;"/>
    </g>
    <g id="line2d_24"/>
    <g id="text_21">
     <!-- PPO2 -->
     <g transform="translate(464.5169 68.272812)scale(0.1 -0.1)">
      <use xlink:href="#DejaVuSans-50"/>
      <use x="60.302734" xlink:href="#DejaVuSans-50"/>
      <use x="120.605469" xlink:href="#DejaVuSans-4f"/>
      <use x="199.316406" xlink:href="#DejaVuSans-32"/>
     </g>
    </g>
   </g>
  </g>
 </g>
 <defs>
  <clipPath id="p6f3ca56857">
   <rect height="266.112" width="357.12" x="53.328125" y="22.318125"/>
  </clipPath>
 </defs>
</svg>
